<svg width="25" height="25" viewBox="0 0 25 25" fill="none" xmlns="http://www.w3.org/2000/svg">
<path d="M23.6202 25C24.3821 25 25 24.3822 25 23.6202V1.37978C25 0.617673 24.3821 0 23.6202 0H1.37979C0.617578 0 0 0.617673 0 1.37978V23.6202C0 24.3822 0.617578 25 1.37979 25H23.6202Z" fill="white"/>
<path d="M17.2888 25V15.4357H20.3798L20.8425 11.7083H17.2888V9.32844C17.2888 8.24926 17.5774 7.51382 19.0674 7.51382L20.9678 7.51295V4.17922C20.6389 4.13378 19.5109 4.03229 18.1986 4.03229C15.4586 4.03229 13.5828 5.76934 13.5828 8.95942V11.7083H10.4839V15.4357H13.5828V25H17.2888Z" fill="#38A2DC"/>
</svg>
