<svg xmlns="http://www.w3.org/2000/svg" width="81" height="81" viewBox="0 0 81 81"><defs><style>.a{fill:none;}.b{fill:#41e2b0;fill-rule:evenodd;}</style></defs><rect class="a" width="81" height="81"/><g transform="translate(3.375 3.375)"><path class="b" d="M47.538,9.048a3.375,3.375,0,0,1-.236,4.624L22.529,36.858a4.016,4.016,0,0,1-5.6-.338L6.8,27.475a3.383,3.383,0,0,1,4.489-5.062L20.3,30.04,42.846,8.778A3.375,3.375,0,0,1,47.538,9.048Z" transform="translate(10.074 15.522)"/><path class="b" d="M38.125,7.75A30.375,30.375,0,1,0,68.5,38.125,30.375,30.375,0,0,0,38.125,7.75ZM1,38.125A37.125,37.125,0,1,1,38.125,75.25,37.125,37.125,0,0,1,1,38.125Z" transform="translate(-1 -1)"/></g></svg>