<svg xmlns="http://www.w3.org/2000/svg" width="20" height="20" viewBox="0 0 20 20"><defs><style>.a{fill:none;}.b{fill:#0094ff;}</style></defs><rect class="a" width="20" height="20"/><g transform="translate(4.167 0.833)"><path class="b" d="M7.5,1A2.5,2.5,0,0,0,5,3.5V16.833a2.5,2.5,0,0,0,2.5,2.5h6.667a2.5,2.5,0,0,0,2.5-2.5V3.5a2.5,2.5,0,0,0-2.5-2.5ZM15,3.5V16.833a.833.833,0,0,1-.833.833H7.5a.833.833,0,0,1-.833-.833V3.5A.833.833,0,0,1,7.5,2.667h6.667A.833.833,0,0,1,15,3.5Z" transform="translate(-5 -1)"/><circle class="b" cx="0.833" cy="0.833" r="0.833" transform="translate(5 13.217)"/></g></svg>