<svg xmlns="http://www.w3.org/2000/svg" width="20" height="20" viewBox="0 0 20 20"><defs><style>.a{fill:none;}.b{fill:#0094f8;}</style></defs><rect class="a" width="20" height="20"/><g transform="translate(0.833 4.167)"><path class="b" d="M16.833,5H3.5A2.5,2.5,0,0,0,1,7.5v6.667a2.5,2.5,0,0,0,2.5,2.5H16.833a2.5,2.5,0,0,0,2.5-2.5V7.5A2.5,2.5,0,0,0,16.833,5ZM14.408,15H5.925a4.008,4.008,0,0,0-3.258-3.258V9.925A4.008,4.008,0,0,0,5.925,6.667h8.483a4.008,4.008,0,0,0,3.258,3.258v1.817A4.008,4.008,0,0,0,14.408,15Zm2.425-8.333a.833.833,0,0,1,.833.833v.725a2.383,2.383,0,0,1-1.558-1.558Zm-12.608,0A2.383,2.383,0,0,1,2.667,8.225V7.5A.833.833,0,0,1,3.5,6.667ZM3.5,15a.833.833,0,0,1-.833-.833v-.725A2.383,2.383,0,0,1,4.225,15Zm12.608,0a2.383,2.383,0,0,1,1.558-1.558v.725a.833.833,0,0,1-.833.833Z" transform="translate(-1 -5)"/><g transform="translate(6.95 3.1)"><path class="b" d="M11.84,8.72a2.5,2.5,0,1,0,2.5,2.5A2.5,2.5,0,0,0,11.84,8.72Zm0,3.333a.833.833,0,1,1,.833-.833A.833.833,0,0,1,11.84,12.053Z" transform="translate(-9.34 -8.72)"/></g></g></svg>