<svg xmlns="http://www.w3.org/2000/svg" width="23" height="23" viewBox="0 0 23 23"><defs><style>.a{fill:none;}.b{fill:#0094ff;}</style></defs><rect class="a" width="23" height="23"/><g transform="translate(3.354 0.965)"><path class="b" d="M16.917,1H6.375A2.875,2.875,0,0,0,3.5,3.875V20.933a1.054,1.054,0,0,0,1.744.8l2.645-2.271,3.642,2.434a1.054,1.054,0,0,0,1.275-.077l2.674-2.29,2.568,2.2a1.054,1.054,0,0,0,1.744-.8V3.875A2.875,2.875,0,0,0,16.917,1Zm.958,18.045-1.706-1.466a1.073,1.073,0,0,0-1.38,0l-2.741,2.348L8.407,17.493a1.064,1.064,0,0,0-1.275.077L5.417,19.055V3.875a.958.958,0,0,1,.958-.958H16.917a.958.958,0,0,1,.958.958Z" transform="translate(-3.5 -1)"/><path class="b" d="M7.458,6.917h6.708a.958.958,0,1,0,0-1.917H7.458a.958.958,0,1,0,0,1.917Z" transform="translate(-3.625 -1.167)"/><path class="b" d="M7.458,10.917h3.833a.958.958,0,1,0,0-1.917H7.458a.958.958,0,1,0,0,1.917Z" transform="translate(-3.625 -1.333)"/><path class="b" d="M15.125,13H7.458a.958.958,0,1,0,0,1.917h7.667a.958.958,0,0,0,0-1.917Z" transform="translate(-3.625 -1.5)"/></g></svg>