<svg xmlns="http://www.w3.org/2000/svg" width="31.167" height="31.167" viewBox="0 0 31.167 31.167"><defs><style>.a,.b{fill:#a9bdcb;}.a{fill-rule:evenodd;}</style></defs><path class="a" d="M1,16.583A15.583,15.583,0,1,1,16.583,32.167,15.583,15.583,0,0,1,1,16.583ZM16.583,3.833a12.75,12.75,0,1,0,12.75,12.75A12.75,12.75,0,0,0,16.583,3.833Z" transform="translate(-1 -1)"/><path class="b" d="M12.417,23A1.332,1.332,0,0,1,11,21.783V7.219A1.332,1.332,0,0,1,12.417,6a1.332,1.332,0,0,1,1.417,1.218V21.783A1.332,1.332,0,0,1,12.417,23Z" transform="translate(3.167 1.082)"/><path class="b" d="M6,12.417A1.332,1.332,0,0,1,7.219,11H21.783A1.332,1.332,0,0,1,23,12.417a1.332,1.332,0,0,1-1.218,1.417H7.219A1.332,1.332,0,0,1,6,12.417Z" transform="translate(1.082 3.167)"/></svg>