<svg xmlns="http://www.w3.org/2000/svg" xmlns:xlink="http://www.w3.org/1999/xlink" width="95" height="95" viewBox="0 0 95 95"><defs><style>.a{fill:#f5f7f5;}.b{fill:#e5dbfc;}.c{clip-path:url(#a);}.d{fill:#cbbfe6;}.e{fill:#fff;}.f{fill:#3e296e;}.g{fill:#734ad1;}</style><clipPath id="a"><circle class="a" cx="47.5" cy="47.5" r="47.5" transform="translate(1025 359)"/></clipPath></defs><g transform="translate(-1025 -359)"><path class="b" d="M47.5,0A47.5,47.5,0,1,1,0,47.5,47.5,47.5,0,0,1,47.5,0Z" transform="translate(1025 359)"/><g class="c"><path class="d" d="M-4717.12-1252.733l7.618,5.926-.235.3-6.99-5.437.094,9.077-.384,0Zm18.3.844-6.308,6.532-.274-.266,6.858-7.1,1.263,9.569-.378.05Zm-31.6.055.341-.173,3.978,7.918,3.817-8.238.347.16-4.15,8.96Zm-16.044-1.125-6.636,6.2-.263-.281,7.218-6.738.766,9.624-.38.031Zm68.089,8.723,1.205-9.8,6.767,6.888-.275.269-6.208-6.32-1.109,9.011Zm-13.846-6.016.238-.3,6.95,5.53.624-11.019.382.021-.665,11.758Zm-48.7-6.856,8.244,5.022-.2.327-7.564-4.608,1.125,9.009-.381.047Zm-16.08-3.226.347.16-3.721,8.04,8.825-2.141.09.373-9.6,2.328Zm41.105,4.139.174-.341,7.9,4.069-1.539-10.164.378-.058,1.652,10.908Zm-10.691,3.9,3.761-9.5-9.247,3.97-.151-.353,10.095-4.333-4.1,10.361Zm26.341-4.6,8.545-4.489.177.339-7.842,4.12,8.308,3.663-.154.35Zm-50.752-7.81.353-.151,3.5,8.144,4.3-7.995.336.182-4.68,8.692Zm77.79,6.915,5.149-7.21-9.067.469-.02-.383,9.861-.51-5.611,7.857Zm-15.627-3.965.152-.353,8.14,3.5-2.383-8.761.368-.1,2.594,9.528Zm-15.642-6.517.382.037-.853,8.821,7.618-4.941.21.321-8.286,5.373Zm-17.225.377,7.917-1.316.063.379-7.194,1.2,6.395,6.576-.275.266Zm-11.942-2.3.359-.131,2.938,8.111,5.8-9.625.33.2-6.219,10.312Zm-5.1,8.164.89-11.271-7.973,5.6-.22-.313,8.639-6.074-.955,12.084Zm-19.1-10.89,8.561,4.465-.177.339-7.857-4.1,1.726,8.916-.376.073Zm66.294-.478-7.068,5.7-.24-.3,7.683-6.2.075,9.653-.385,0Zm15.145,3.187,7.463-6.126.24.295-6.848,5.622,8.878,1.91-.08.374Zm-33.527,1.531,7.338-5.346-8.542-2.361.1-.368,9.308,2.57-7.982,5.813Zm24.836-8.9.363.119-2.751,8.424,8.512-3.162.133.359-9.258,3.438Zm-63.1-3.648-5.235,7.451-.314-.22,5.663-8.06,3.379,9.55-.362.127Zm27.125,4.385.144-.354,7.833,3.225-3.294-8.405.356-.141,3.622,9.242Zm-10.671,3.019,2.824-7,4.59,6.118-.307.229-4.181-5.575-2.573,6.373Zm33.521-9.943.385.008-.167,8.858,7.214-5.515.232.305-7.844,6Zm-44.7-1.852.382-.043,1.024,8.842,7.308-6.1.244.295-7.851,6.549Zm66.058.057,9.386,3.057-.119.365-8.63-2.812,3.091,8.3-.359.134Zm-81.792,7.321,7.278-5.059-8.7-2.612.11-.366,9.456,2.842-7.927,5.509Zm48.335-6.729.229-.307,7.091,5.31-.261-9.074.383-.011.284,9.868Zm21.484.832.169-.344,7.947,3.921-1.92-8.873.374-.081,2.088,9.648Zm-42.693-.571,4.628-7.031.319.211-4.283,6.511,6.256.719-.044.38Zm8.394-3.315.151-.353,8.1,3.451-3.383-8.271.354-.145,3.736,9.135Zm-16.248,2.579.063-9.874,7.519,6.054-.24.3-6.9-5.556-.057,9.079Zm-11.834-9.386,8.651,1.895-.083.374-7.926-1.734,3.577,8.375-.352.151Zm59.767.66.337.183-4.134,7.61,8.134-.907.042.382-8.862.988Zm10.861-1.559.287-.253,6,6.817,1.566-8.719.375.069-1.706,9.5Zm-34.764-.97,9.635.6-.025.383-8.842-.551,5.2,7.447-.315.218Zm-47.946,6.64,6.873-5.584.243.3-6.163,5.007,8.963.986-.043.38Zm57-2.875,8.843-.536-6.069-6.755.284-.255,6.6,7.344-9.639.585Zm-25.5-.556,4.822-7.428-9.036.867-.037-.382,9.826-.944-5.254,8.1Zm44.273-9.9,8.482,4.848-.19.334-7.842-4.483.8,8.471-.382.035Zm-59.824,7.641,1.995-10.4-8.888,6.712-.232-.306,9.683-7.312-2.181,11.375Zm25.6-9.832.381.031-.612,7.617,7.745-4.437.191.333-8.374,4.8Zm22.934,1.542.334-.186,3.334,6.028,3.826-8.256.347.16-4.141,8.941Zm-13.475-5.236,8.883,3.779-.149.353-8.152-3.468,2.416,8.752-.37.1Zm35.318,7.556,6.6-7.042.279.263-6.059,6.463,9.048.742-.032.381Zm-61.29-9.68.334.186-4.342,7.79,8.693-.252.01.383-9.367.272Zm-21.422-1.425,9.072,3.7-.144.354-8.208-3.344,3.667,8.518-.353.151Zm31.78-1.121-6.4,5.492-.25-.29,7-6.011.353,10.245-.383.014Zm37.842.664.313-.223,5.13,7.224,2.522-8.72.369.107-2.745,9.482Zm-11.729,5.729,7.732-4.4-7.865-4.677.2-.328,8.428,5.013-8.3,4.723Zm-22.464-7.54,9.653.2-.007.382-8.86-.186,5.5,7.227-.3.232Zm44.355,5.655,7.75-4.293-8.389-3.478.147-.354,9.122,3.782-8.445,4.678Zm-75.131-6.413.188-.334,7.737,4.318-1.471-8.96.38-.063,1.6,9.745Zm12.238,4.141.822-10.957,7.708,8.157-.279.263-7.112-7.526-.757,10.093Zm31.771-11.186.383-.014.358,9.981,6.178-6.57.279.263-6.807,7.239Zm21.688-3.327,8.622,4.35-.173.342-7.911-3.991,1.841,8.892-.374.076Zm-34.457,8.886,8.57-4.38-8.028-2.416.11-.367,8.941,2.69L-4723.6-1317Zm-34.412-10.4.385.006-.154,8.86,7.207-5.527.233.3-7.835,6.01Zm84.351,9.4,4.043-7.883-8.9,1.783-.075-.376,9.679-1.939-4.406,8.589Zm-60.768-.931,3.921-9.06,4.55,8.515-.337.182-4.175-7.816-3.608,8.332Zm39.329-7.917.319.21-4.875,7.4,9.042-.806.035.382-9.833.878Zm-16.787-7.575.373.089-2.245,9.436,8.319-4.185.17.341-9.052,4.556Zm-38.436,1.792.332-.191,4.4,7.688,3.355-8.436.357.142-3.649,9.173Zm46.8,7.6,4.611-7.639-6.508-.057,0-.383,7.181.063-4.958,8.215Zm20.616-10.406h.383l-.012,8.857,7.115-5.639.236.3-7.737,6.132Zm-41.91,8.57,2.581-9.593,5.976,7.561-.3.238-5.5-6.964-2.384,8.859Zm-10.561-9.748.369.1-2.088,7.617,8.754-2.6.11.366-9.415,2.8Zm38.339,7.659.011-.382,8.856.208-5.481-7.239.3-.23,5.963,7.871Zm-66.786-4.078,7.957-5.469.217.314-7.3,5.02,8.685,2.657-.111.366Zm46.88-10.526,7.618,5.926-.235.3-6.99-5.439.094,9.079-.384,0Zm18.3.846-6.308,6.532-.274-.266,6.858-7.1,1.263,9.569-.378.049Zm-31.6.055.341-.172,3.978,7.918,3.817-8.239.347.162-4.15,8.96Zm-16.044-1.125-6.636,6.2-.263-.281,7.218-6.738.766,9.624-.38.029Zm68.089,8.721,1.205-9.8,6.767,6.888-.275.267-6.208-6.32-1.109,9.011Zm-13.846-6.014.238-.3,6.95,5.53.624-11.021.382.021-.665,11.76Zm-48.7-6.856,8.244,5.022-.2.327-7.564-4.609,1.125,9.01-.381.047Zm-16.08-3.226.347.16-3.721,8.041,8.825-2.141.09.373-9.6,2.328Zm41.105,4.139.174-.341,7.9,4.069-1.539-10.164.378-.058,1.652,10.906Zm-10.691,3.9,3.761-9.5-9.247,3.968-.151-.351,10.095-4.333-4.1,10.36Zm26.341-4.6,8.545-4.489.177.339-7.842,4.121,8.308,3.661-.154.351Zm-50.752-7.808.353-.151,3.5,8.143,4.3-7.995.336.182-4.68,8.694Zm77.79,6.914,5.149-7.208-9.067.469-.02-.383,9.861-.51-5.611,7.858Zm-15.627-3.965.152-.351,8.14,3.5-2.383-8.76.368-.1,2.594,9.526Zm-15.642-6.515.382.037-.853,8.819,7.618-4.941.21.322-8.286,5.373Zm-17.225.377,7.917-1.316.063.377-7.194,1.2,6.395,6.575-.275.267Zm-11.942-2.305.359-.131,2.938,8.111,5.8-9.624.33.2-6.219,10.311Zm-5.1,8.166.89-11.271-7.973,5.6-.22-.313,8.639-6.074-.955,12.085Zm-19.1-10.89,8.561,4.463-.177.339-7.857-4.1,1.726,8.916-.376.072Zm66.294-.479-7.068,5.706-.24-.3,7.683-6.205.075,9.654-.385,0Zm15.145,3.188,7.463-6.126.24.295-6.848,5.622,8.878,1.909-.08.374Zm-33.527,1.53,7.338-5.346-8.542-2.359.1-.37,9.308,2.57-7.982,5.814Zm24.836-8.9.363.119-2.751,8.424,8.512-3.164.133.359-9.258,3.44Zm-63.1-3.649-5.235,7.451-.314-.22,5.665-8.059,3.377,9.549-.362.128Zm27.125,4.385.144-.354,7.833,3.226-3.294-8.407.356-.139,3.622,9.241Zm-10.671,3.019,2.824-7,4.59,6.12-.307.229-4.181-5.575-2.573,6.372Zm33.521-9.941.385.006-.167,8.857,7.214-5.513.232.305-7.844,5.995Zm-44.7-1.852.382-.044,1.024,8.844,7.308-6.1.244.295-7.851,6.549Zm66.058.055,9.386,3.058-.119.365-8.63-2.814,3.091,8.3-.359.133Zm-81.792,7.321,7.278-5.057-8.7-2.613.11-.368,9.456,2.843-7.927,5.509Zm48.335-6.729.229-.307,7.091,5.312-.261-9.074.383-.012.284,9.87Zm21.484.834.169-.344,7.947,3.921-1.92-8.874.374-.081,2.088,9.65Zm-42.693-.573,4.628-7.031.319.211-4.283,6.511,6.256.719-.044.38Zm8.394-3.315.151-.353,8.1,3.452-3.383-8.271.354-.145,3.736,9.134Zm-16.248,2.579.063-9.874,7.519,6.055-.24.3-6.9-5.556-.057,9.08ZM-4751.2-1386l8.651,1.893-.083.374-7.926-1.734,3.577,8.375-.352.151Zm59.767.658.337.183-4.134,7.612,8.134-.907.042.38-8.862.99Zm10.861-1.559.287-.252,6,6.817,1.566-8.719.375.067-1.706,9.5Zm-34.764-.968,9.635.6-.025.382-8.842-.55,5.2,7.445-.315.22Zm-47.946,6.64,6.873-5.584.243.3-6.163,5.007,8.963.986-.043.382Zm57-2.875,8.843-.536-6.069-6.755.284-.257,6.6,7.346-9.639.583Zm-25.5-.556,4.822-7.428-9.036.867-.037-.382,9.826-.944-5.254,8.1Zm44.273-9.9,8.482,4.849-.19.333-7.842-4.481.8,8.469-.382.037Zm-59.824,7.642,1.995-10.4-8.888,6.712-.232-.307,9.683-7.311-2.181,11.375Zm25.6-9.833.381.032-.612,7.618,7.745-4.437.191.333-8.374,4.8Zm22.934,1.544.334-.186,3.334,6.028,3.826-8.257.347.162-4.141,8.941Zm-13.475-5.237,8.883,3.78-.149.353-8.152-3.469,2.416,8.752-.37.1Zm35.318,7.556,6.6-7.04.279.261-6.059,6.463,9.048.743-.032.382Zm-61.29-9.681.334.188-4.342,7.79,8.693-.252.01.383-9.367.272Zm-21.422-1.423,9.072,3.7-.144.354-8.208-3.342,3.667,8.519-.353.151Zm31.78-1.122-6.4,5.494-.25-.29,7-6.014.353,10.248-.383.014Zm37.842.664.313-.221,5.13,7.224,2.522-8.72.369.105-2.745,9.483Zm-11.729,5.73,7.732-4.4-7.865-4.675.2-.33,8.428,5.013-8.3,4.724Zm-22.464-7.541,9.653.2-.007.383-8.86-.186,5.5,7.225-.3.232Zm44.355,5.657,7.75-4.3-8.389-3.477.147-.354,9.122,3.781-8.445,4.68Zm-75.131-6.413.188-.334,7.737,4.318-1.471-8.96.38-.063,1.6,9.745Zm12.238,4.141.822-10.957,7.708,8.157-.279.263-7.112-7.526-.757,10.093Zm31.771-11.187.383-.012.358,9.98,6.178-6.568.279.261-6.807,7.239Zm21.688-3.325,8.622,4.35-.173.34-7.911-3.991,1.841,8.892-.374.078Zm-34.457,8.885,8.57-4.379-8.028-2.415.11-.367,8.941,2.689-9.418,4.814Zm-34.412-10.4.385.006-.154,8.862,7.207-5.529.233.305-7.835,6.01Zm84.351,9.4,4.043-7.883-8.9,1.785-.075-.375,9.679-1.941-4.406,8.589Zm-60.768-.93,3.921-9.06,4.55,8.514-.337.182-4.175-7.816-3.608,8.332Zm39.329-7.918.319.211-4.875,7.4,9.042-.806.035.382-9.833.876Zm-16.787-7.573.373.089-2.245,9.435,8.319-4.185.17.342-9.052,4.555Zm-38.436,1.793.332-.191,4.4,7.686,3.355-8.435.357.142-3.649,9.172Zm46.8,7.6,4.609-7.637-6.508-.056,0-.383,7.181.063-4.958,8.213Zm20.614-10.406h.383l-.012,8.859,7.115-5.639.236.3-7.737,6.13Zm-41.91,8.572,2.581-9.593,5.976,7.561-.3.237-5.5-6.962-2.384,8.857Zm-10.561-9.748.369.1-2.088,7.616,8.754-2.6.11.367-9.415,2.8Zm38.339,7.659.011-.383,8.856.208-5.481-7.237.3-.232,5.963,7.871Zm-66.786-4.078,7.957-5.471.217.316-7.3,5.02,8.685,2.657-.111.366Z" transform="translate(5786 1734.748)"/><g transform="translate(-4787 -832.816)"><path class="e" d="M46,83H4a4,4,0,0,1-4-4V4A4,4,0,0,1,4,0H46a4,4,0,0,1,4,4V79A4,4,0,0,1,46,83ZM20.2,2.9a1.448,1.448,0,1,0,0,2.9h9.6a1.448,1.448,0,1,0,0-2.9Z" transform="translate(5823 1234.816)"/><rect class="f" width="44" height="72" rx="2" transform="translate(5826 1243.816)"/></g><path class="f" d="M-4731.277-1407h-16.129a7.746,7.746,0,0,1-7.531-7h31.19A7.745,7.745,0,0,1-4731.277-1407Z" transform="translate(5827 1816)"/><rect class="g" width="33" height="28" rx="8" transform="translate(1073 378)"/><path class="e" d="M-5209.649-1413.358c-.163,0-.324,0-.483,0a7.079,7.079,0,0,1-3.624-.935c-.195-.113-.438-.189-.486-.462.1-.1.009-.156-.054-.232-.323-.394-.318-.558,0-.966a1.143,1.143,0,0,0,.246-.365,1.267,1.267,0,0,1,.739-.944.39.39,0,0,0,.187-.38,2.784,2.784,0,0,1,.274-1.176.3.3,0,0,0-.114-.411,3.8,3.8,0,0,0-1.269-.557c-.267-.094-.449-.173-.4-.5a.369.369,0,0,0-.295-.445,1.894,1.894,0,0,1-.8-.5.743.743,0,0,0-.939-.164c-.381.2-.577.092-.652-.331-.044-.251-.259-.457-.177-.741-.316.123-.389.081-.385-.227a2.885,2.885,0,0,1,.22-.811c.069-.164.22-.258.327-.39.215-.267.626-.284.79-.621.047-.1.146-.169.163-.282a.718.718,0,0,1,.427-.554,1.186,1.186,0,0,0,.367-.348,3.57,3.57,0,0,1,.279-.32c.161-.134.344-.024.526-.02-.065-.181-.368-.175-.282-.4s.3-.212.5-.207c.2.038.336-.093.488-.179a.8.8,0,0,1,.088-.045c.29-.161.06-.274-.037-.4-.22-.083-.437-.185-.652.01a.613.613,0,0,0-.284.262,1.358,1.358,0,0,1-.17.179.7.7,0,0,0-.257.293.308.308,0,0,1-.188.166c-.182-.042-.265-.211-.363-.333-.159-.194-.055-.369.15-.477a2.66,2.66,0,0,0,.684-.478.374.374,0,0,1-.331.122l-.012-.006c-.1.1-.178.223-.353.185l.284-.265a.155.155,0,0,1-.006-.044.8.8,0,0,1,.319-.436,8.078,8.078,0,0,1,3.208-1.734c.473-.131.97-.085,1.448-.176h1.7a8.9,8.9,0,0,1,2.047.36,8.187,8.187,0,0,1,2.825,1.757c.127.126.283.248.24.466a.221.221,0,0,1-.274.037,1.713,1.713,0,0,0-.85-.2.275.275,0,0,1-.215-.124,1.489,1.489,0,0,0-2.035-.287c-.11.077-.117.126,0,.217.385.305.361.46-.094.684-.221.109-.451.2-.672.305a.264.264,0,0,0-.173.344c.075.347-.027.452-.373.45a1.437,1.437,0,0,0-.184-.012c-.2.021-.335.126-.322.329s.172.289.367.278a.529.529,0,0,0,.47-.237,1.3,1.3,0,0,1,.36-.367.811.811,0,0,1,1.116-.013,6.4,6.4,0,0,0,1.155.537c.136.077.453-.134.485-.317s.034-.381.254-.388a.8.8,0,0,1,.681.2,1.141,1.141,0,0,1,.19.316c.115.271.051.385-.235.443a1.452,1.452,0,0,0-.427.073.62.62,0,0,1,.6.657c.012.238-.1.348-.338.31s-.461-.062-.694-.084-.443-.149-.651.063c-.064.066-.2.031-.283-.018a4.1,4.1,0,0,1-.977-.639c-.085-.092-.153-.189-.3-.169-.451.06-.9.086-1.352.17a.593.593,0,0,0-.459.276,2.954,2.954,0,0,1-.664.781.951.951,0,0,0-.35.986,1,1,0,0,1-.009.4,1.611,1.611,0,0,0,.758,1.56.555.555,0,0,0,.428.041,2.38,2.38,0,0,0,.423-.127,1.728,1.728,0,0,1,1.563.255.445.445,0,0,1,.228.435.779.779,0,0,0,.154.52,1.037,1.037,0,0,1,.164,1.146c-.408.867.041,1.6.282,2.372.041.131.135.178.257.1.329-.214.659-.435.962-.673a1.535,1.535,0,0,0,.351-.706,1.4,1.4,0,0,1,.116-.309,22.19,22.19,0,0,0,1.4-3.207c.1-.223.072-.348-.161-.462a1.509,1.509,0,0,1-.564-.667c-.254-.436-.36-.936-.569-1.393a.3.3,0,0,1,.119-.419c.2-.089.291.081.368.217.22.384.393.792.6,1.181.065.119.09.325.282.286a.6.6,0,0,0,.505-.38.413.413,0,0,0-.136-.465c-.121-.1-.276-.164-.394-.272s-.2-.23-.1-.388a.293.293,0,0,1,.393-.1,1.59,1.59,0,0,1,1.057,1.264c.042.313.039.632.11.942v.885a7.532,7.532,0,0,1-.52,2.386,8.392,8.392,0,0,1-5.737,4.879,6.359,6.359,0,0,1-1.59.156C-5209.372-1413.355-5209.511-1413.356-5209.649-1413.358Zm-6.5-3.152a8.341,8.341,0,0,1-1.847-5.446c.008-.093.015-.187.021-.28.279.071.363.335.494.534a3.272,3.272,0,0,0,.4.611.3.3,0,0,1,.117.295c-.109.34-.017.7-.121,1.041a.307.307,0,0,0,.071.309,2.852,2.852,0,0,1,.511.966.358.358,0,0,0,.067.13,4.882,4.882,0,0,1,1.072,2.052,4.954,4.954,0,0,0,1.15,1.5A6.179,6.179,0,0,1-5216.154-1416.51Zm13.006-8.444a.646.646,0,0,0-.22-.443.77.77,0,0,1-.146-.291.174.174,0,0,1,.093-.219c.118-.048.172.081.173.138a.638.638,0,0,0,.4.566c.1.056.059.173.031.221-.072.141.194.284-.027.33a.207.207,0,0,1-.04,0A.3.3,0,0,1-5203.147-1424.954Z" transform="translate(6299 1814)"/></g></g></svg>