<svg width="30" height="30" viewBox="0 0 30 30" fill="none" xmlns="http://www.w3.org/2000/svg">
<circle cx="15" cy="15" r="15" fill="#80C46D"/>
<path d="M12.2221 8.49996V7.58329C12.2221 7.34018 12.3196 7.10702 12.4933 6.93511C12.6669 6.7632 12.9024 6.66663 13.148 6.66663H16.8517C17.0973 6.66663 17.3328 6.7632 17.5064 6.93511C17.6801 7.10702 17.7776 7.34018 17.7776 7.58329V8.49996H21.4813C21.9725 8.49996 22.4435 8.69311 22.7908 9.03693C23.1381 9.38075 23.3332 9.84706 23.3332 10.3333V11.25C23.3332 11.7362 23.1381 12.2025 22.7908 12.5463C22.4435 12.8901 21.9725 13.0833 21.4813 13.0833H21.3582L20.7285 22.4333C20.6816 23.1293 20.3692 23.7816 19.8546 24.2582C19.3401 24.7347 18.6618 24.9999 17.9572 25H12.0609C11.3569 24.9999 10.6792 24.7353 10.1648 24.2595C9.6503 23.7837 9.33752 23.1323 9.28965 22.437L8.64521 13.0833H8.51836C8.02721 13.0833 7.55619 12.8901 7.2089 12.5463C6.86161 12.2025 6.6665 11.7362 6.6665 11.25V10.3333C6.6665 9.84706 6.86161 9.38075 7.2089 9.03693C7.55619 8.69311 8.02721 8.49996 8.51836 8.49996H12.2221ZM21.4813 10.3333H8.51836V11.25H21.4813V10.3333ZM10.5008 13.0833L11.1369 22.3123C11.1528 22.5441 11.2571 22.7613 11.4287 22.9199C11.6002 23.0785 11.8262 23.1667 12.0609 23.1666H17.9572C18.1923 23.1667 18.4185 23.0782 18.5901 22.9192C18.7617 22.7603 18.8658 22.5426 18.8813 22.3105L19.5017 13.0833H10.5017H10.5008ZM13.148 14C13.3936 14 13.6291 14.0965 13.8027 14.2684C13.9764 14.4404 14.0739 14.6735 14.0739 14.9166V21.3333C14.0739 21.5764 13.9764 21.8096 13.8027 21.9815C13.6291 22.1534 13.3936 22.25 13.148 22.25C12.9024 22.25 12.6669 22.1534 12.4933 21.9815C12.3196 21.8096 12.2221 21.5764 12.2221 21.3333V14.9166C12.2221 14.6735 12.3196 14.4404 12.4933 14.2684C12.6669 14.0965 12.9024 14 13.148 14ZM16.8517 14C17.0973 14 17.3328 14.0965 17.5064 14.2684C17.6801 14.4404 17.7776 14.6735 17.7776 14.9166V21.3333C17.7776 21.5764 17.6801 21.8096 17.5064 21.9815C17.3328 22.1534 17.0973 22.25 16.8517 22.25C16.6061 22.25 16.3706 22.1534 16.197 21.9815C16.0233 21.8096 15.9258 21.5764 15.9258 21.3333V14.9166C15.9258 14.6735 16.0233 14.4404 16.197 14.2684C16.3706 14.0965 16.6061 14 16.8517 14Z" fill="white"/>
</svg>
