<svg width="272" height="150" viewBox="0 0 272 150" fill="none" xmlns="http://www.w3.org/2000/svg">
<g clip-path="url(#clip0)">
<g opacity="0.1">
<path opacity="0.1" fill-rule="evenodd" clip-rule="evenodd" d="M245.93 139.16C247.01 140.253 247.62 141.724 247.63 143.26V143.8C247.628 145.335 247.021 146.807 245.941 147.898C244.861 148.99 243.395 149.612 241.86 149.63H218C216.472 149.601 215.016 148.975 213.945 147.885C212.874 146.795 212.272 145.328 212.27 143.8V143.26C212.277 141.725 212.883 140.254 213.96 139.16C215.039 138.077 216.501 137.462 218.03 137.45H241.91C243.422 137.471 244.866 138.085 245.93 139.16Z" fill="#80C46D"/>
<path opacity="0.1" fill-rule="evenodd" clip-rule="evenodd" d="M266.57 70.08C266.573 71.6833 265.94 73.2223 264.81 74.36C264.257 74.9187 263.598 75.3621 262.872 75.6642C262.145 75.9663 261.366 76.1212 260.58 76.12H184.75C183.959 76.122 183.177 76.2803 182.447 76.5857C181.718 76.8912 181.056 77.3378 180.5 77.9C179.379 79.0424 178.75 80.5792 178.75 82.18C178.75 83.7807 179.379 85.3176 180.5 86.46C181.057 87.0203 181.719 87.4651 182.449 87.7688C183.178 88.0726 183.96 88.2293 184.75 88.23H265.36C266.147 88.2289 266.927 88.3849 267.653 88.6888C268.38 88.9927 269.038 89.4385 269.59 90C270.152 90.5613 270.597 91.2287 270.899 91.9634C271.201 92.6982 271.355 93.4856 271.35 94.28C271.392 95.0869 271.27 95.894 270.992 96.6527C270.715 97.4115 270.287 98.1064 269.734 98.6957C269.181 99.2849 268.515 99.7565 267.775 100.082C267.036 100.407 266.238 100.58 265.43 100.59H212.71C211.12 100.599 209.598 101.24 208.48 102.37C207.352 103.507 206.719 105.043 206.719 106.645C206.719 108.246 207.352 109.783 208.48 110.92C209.6 112.047 211.121 112.683 212.71 112.69C235.83 112.69 229.17 112.96 252.36 112.96C253.153 112.976 253.936 113.139 254.67 113.44C255.417 113.757 256.097 114.215 256.67 114.79C257.222 115.366 257.654 116.046 257.94 116.79C258.238 117.537 258.381 118.336 258.36 119.14C258.363 120.741 257.734 122.279 256.61 123.42C256.054 123.979 255.394 124.423 254.666 124.727C253.939 125.031 253.158 125.188 252.37 125.19H184.1C183.311 125.189 182.53 125.345 181.802 125.648C181.074 125.952 180.414 126.398 179.86 126.96C178.735 128.101 178.103 129.638 178.1 131.24C178.1 144.11 202.59 130.43 202.59 143.24C202.604 144.036 202.465 144.827 202.18 145.57C201.895 146.307 201.468 146.981 200.922 147.552C200.376 148.124 199.723 148.582 199 148.9C198.273 149.213 197.492 149.38 196.7 149.39C165.22 149.39 176.31 149.53 163.63 149.6H67.77H12.77C11.1799 149.591 9.65843 148.95 8.54002 147.82C7.41212 146.683 6.77923 145.146 6.77923 143.545C6.77923 141.943 7.41212 140.407 8.54002 139.27C9.097 138.71 9.75917 138.265 10.4885 137.961C11.2178 137.657 12 137.501 12.79 137.5H33.07C33.8601 137.499 34.6422 137.343 35.3715 137.039C36.1009 136.735 36.763 136.29 37.32 135.73C38.4467 134.588 39.0785 133.049 39.0785 131.445C39.0785 129.841 38.4467 128.302 37.32 127.16C36.7622 126.601 36.0997 126.159 35.3704 125.856C34.6411 125.554 33.8594 125.399 33.07 125.4C10.16 125.4 28.53 125.13 5.99002 125.13C5.20165 125.128 4.4214 124.971 3.69388 124.667C2.96636 124.363 2.30582 123.919 1.75002 123.36C0.628697 122.218 0.000488281 120.681 0.000488281 119.08C0.000488281 117.479 0.628697 115.942 1.75002 114.8C2.30947 114.245 2.97274 113.806 3.70196 113.507C4.43117 113.209 5.21206 113.057 6.00002 113.06C29.38 113.06 37.17 112.83 60.78 112.83C62.3667 112.818 63.8841 112.178 65 111.05C66.1207 109.909 66.7486 108.374 66.7486 106.775C66.7486 105.176 66.1207 103.641 65 102.5C64.443 101.94 63.7809 101.495 63.0515 101.191C62.3222 100.887 61.5401 100.731 60.75 100.73H14.55C13.7639 100.737 12.9842 100.588 12.2563 100.291C11.5284 99.9938 10.8668 99.555 10.31 99C9.18212 97.863 8.54923 96.3264 8.54923 94.725C8.54923 93.1235 9.18212 91.5869 10.31 90.45C10.8626 89.8859 11.5224 89.4379 12.2505 89.1322C12.9786 88.8266 13.7604 88.6694 14.55 88.67H75C75.7884 88.668 76.5686 88.5106 77.2962 88.2069C78.0237 87.9032 78.6842 87.4591 79.24 86.9C80.3758 85.75 81.0089 84.1963 81 82.58C80.9808 80.9801 80.3429 79.4497 79.22 78.31C78.1057 77.1783 76.5882 76.5346 75 76.52H25.42C25.3926 76.5175 25.3671 76.5048 25.3486 76.4844C25.3301 76.464 25.3199 76.4375 25.32 76.41C25.3178 76.3868 25.3076 76.3652 25.2912 76.3488C25.2748 76.3324 25.2531 76.3222 25.23 76.32C23.7945 76.0486 22.5074 75.2628 21.61 74.11C20.6955 72.8714 20.242 71.3525 20.3278 69.8153C20.4136 68.2781 21.0334 66.819 22.08 65.69C22.6358 65.1308 23.2964 64.6867 24.0239 64.383C24.7514 64.0793 25.5317 63.922 26.32 63.92H58.87C59.6561 63.9181 60.4342 63.7618 61.16 63.46C61.8885 63.1587 62.5484 62.7131 63.1 62.15C63.6628 61.577 64.1049 60.8969 64.4 60.15C65.0128 58.6675 65.0128 57.0025 64.4 55.52C64.1049 54.773 63.6628 54.0929 63.1 53.52C61.9783 52.3969 60.4573 51.764 58.87 51.76H40.87C40.0613 51.7419 39.2635 51.5688 38.52 51.25C37.7653 50.9282 37.0846 50.4552 36.52 49.86C35.6787 48.9902 35.1103 47.8932 34.8848 46.7042C34.6594 45.5153 34.7869 44.2864 35.2515 43.169C35.7161 42.0516 36.4975 41.0946 37.4995 40.416C38.5014 39.7374 39.68 39.3668 40.89 39.35H84.73C86.2933 39.2864 87.7715 38.6207 88.8551 37.4921C89.9388 36.3635 90.5439 34.8596 90.5439 33.295C90.5439 31.7304 89.9388 30.2264 88.8551 29.0978C87.7715 27.9692 86.2933 27.3035 84.73 27.24H29.73C28.1387 27.24 26.6126 26.6078 25.4874 25.4826C24.3622 24.3574 23.73 22.8313 23.73 21.24C23.6971 20.4301 23.8228 19.6216 24.1 18.86C24.3759 18.0956 24.8084 17.3973 25.37 16.81C25.9205 16.2243 26.583 15.7553 27.3182 15.4306C28.0534 15.1059 28.8464 14.9323 29.65 14.92H242.85L242.97 14.8H254.92C255.711 14.7973 256.494 14.9525 257.223 15.2565C257.953 15.5604 258.615 16.007 259.17 16.57C260.291 17.7107 260.919 19.2458 260.919 20.845C260.919 22.4441 260.291 23.9792 259.17 25.12C258.614 25.6821 257.952 26.1287 257.223 26.4342C256.493 26.7397 255.711 26.898 254.92 26.9H194.49C193.7 26.8988 192.918 27.0558 192.19 27.3615C191.462 27.6671 190.802 28.1154 190.25 28.68C189.683 29.2461 189.235 29.92 188.933 30.6619C188.631 31.4039 188.48 32.1989 188.49 33C188.498 34.6022 189.137 36.1368 190.27 37.27C190.825 37.8221 191.483 38.2592 192.207 38.5561C192.932 38.853 193.707 39.0038 194.49 39H244.05C244.079 39 244.107 39.0115 244.128 39.0322C244.148 39.0528 244.16 39.0808 244.16 39.11C244.16 39.1322 244.168 39.1537 244.183 39.1703C244.198 39.1869 244.218 39.1975 244.24 39.2C245.673 39.4791 246.957 40.2633 247.86 41.41C248.78 42.587 249.242 44.0581 249.16 45.55C249.157 47.1522 248.525 48.6892 247.4 49.83C246.844 50.3891 246.184 50.8332 245.456 51.1369C244.729 51.4406 243.948 51.5979 243.16 51.6H210.61C209.822 51.602 209.041 51.7593 208.314 52.063C207.586 52.3667 206.926 52.8108 206.37 53.37C205.255 54.5164 204.628 56.0506 204.62 57.65C204.617 58.443 204.774 59.2285 205.08 59.96C205.368 60.708 205.808 61.3887 206.37 61.96C206.927 62.5208 207.59 62.966 208.32 63.27C209.044 63.5765 209.823 63.7329 210.61 63.73H260.61C261.42 63.7371 262.22 63.9107 262.96 64.24C263.71 64.5601 264.386 65.0318 264.945 65.6255C265.505 66.2192 265.935 66.922 266.21 67.69C266.483 68.456 266.605 69.2675 266.57 70.08Z" fill="#80C46D"/>
</g>
<path d="M79.2101 40.3199C80.9701 45.3999 82.7501 50.4799 84.5101 55.5599H188.29C181.81 74.1799 175.333 92.7933 168.86 111.4H109.73C110.28 112.96 110.82 114.53 111.36 116.09H162.51V121.52H107.51L104 111.4H98.2201C90.6001 89.52 82.9835 67.6366 75.3701 45.7499H62.3701V40.3199H79.2101ZM86.4001 60.9999C91.6201 75.9866 96.8368 90.9866 102.05 106H165.05C170.27 91.0133 175.487 76.0133 180.7 60.9999H86.4001Z" fill="#80C46D"/>
<path d="M115 122.35C116.426 122.35 117.821 122.773 119.007 123.566C120.193 124.358 121.117 125.485 121.662 126.803C122.208 128.121 122.35 129.571 122.071 130.97C121.792 132.369 121.104 133.654 120.095 134.662C119.085 135.67 117.8 136.356 116.401 136.633C115.001 136.91 113.551 136.766 112.234 136.218C110.917 135.671 109.791 134.745 109 133.558C108.209 132.371 107.788 130.976 107.79 129.55C107.795 127.64 108.557 125.811 109.908 124.461C111.26 123.112 113.09 122.353 115 122.35ZM115 127.78C114.647 127.778 114.302 127.881 114.007 128.076C113.713 128.271 113.483 128.549 113.347 128.874C113.212 129.2 113.175 129.559 113.244 129.905C113.312 130.251 113.482 130.569 113.731 130.819C113.981 131.068 114.299 131.238 114.645 131.306C114.991 131.375 115.35 131.338 115.676 131.203C116.002 131.067 116.279 130.837 116.474 130.543C116.669 130.248 116.772 129.903 116.77 129.55C116.771 129.317 116.726 129.086 116.638 128.871C116.55 128.656 116.419 128.46 116.255 128.295C116.09 128.131 115.894 128 115.679 127.912C115.464 127.824 115.233 127.779 115 127.78Z" fill="#80C46D"/>
<path d="M152 122.35C153.426 122.35 154.821 122.773 156.007 123.566C157.193 124.358 158.117 125.485 158.662 126.803C159.208 128.121 159.35 129.571 159.071 130.97C158.792 132.369 158.104 133.654 157.095 134.662C156.085 135.67 154.8 136.356 153.401 136.633C152.001 136.91 150.551 136.766 149.234 136.218C147.917 135.671 146.791 134.745 146 133.558C145.209 132.371 144.788 130.976 144.79 129.55C144.795 127.64 145.557 125.811 146.908 124.461C148.26 123.112 150.09 122.353 152 122.35ZM152 127.78C151.647 127.778 151.302 127.881 151.007 128.076C150.713 128.271 150.483 128.549 150.347 128.874C150.212 129.2 150.175 129.559 150.244 129.905C150.312 130.251 150.482 130.569 150.731 130.819C150.981 131.068 151.299 131.238 151.645 131.306C151.991 131.375 152.35 131.338 152.676 131.203C153.002 131.067 153.279 130.837 153.474 130.543C153.669 130.248 153.772 129.903 153.77 129.55C153.771 129.317 153.727 129.086 153.638 128.871C153.55 128.656 153.419 128.46 153.255 128.295C153.09 128.131 152.894 128 152.679 127.912C152.464 127.824 152.233 127.779 152 127.78Z" fill="#80C46D"/>
<path fill-rule="evenodd" clip-rule="evenodd" d="M39.48 66.8899H68.25V72.3199H39.48V66.8899Z" fill="#80C46D"/>
<path fill-rule="evenodd" clip-rule="evenodd" d="M50.6602 81.2799H79.4202V86.7099H50.6602V81.2799Z" fill="#80C46D"/>
<path d="M122.54 77.7999C124.274 77.7999 125.68 76.3941 125.68 74.6599C125.68 72.9257 124.274 71.5199 122.54 71.5199C120.806 71.5199 119.4 72.9257 119.4 74.6599C119.4 76.3941 120.806 77.7999 122.54 77.7999Z" fill="#80C46D"/>
<path d="M145.92 77.7999C147.654 77.7999 149.06 76.3941 149.06 74.6599C149.06 72.9257 147.654 71.5199 145.92 71.5199C144.186 71.5199 142.78 72.9257 142.78 74.6599C142.78 76.3941 144.186 77.7999 145.92 77.7999Z" fill="#80C46D"/>
<path d="M144.15 93.59C135.15 83.73 125.57 86.71 122.81 88.02C122.537 88.1453 122.229 88.1698 121.94 88.0893C121.65 88.0087 121.399 87.8283 121.23 87.58C121.128 87.4276 121.06 87.2548 121.031 87.0736C121.002 86.8923 121.012 86.7069 121.062 86.5302C121.111 86.3534 121.198 86.1894 121.317 86.0495C121.436 85.9097 121.584 85.7972 121.75 85.72C125.17 84.14 135.96 80.91 146.01 91.85C146.127 91.9751 146.217 92.1225 146.276 92.2834C146.334 92.4443 146.36 92.6154 146.35 92.7863C146.341 92.9573 146.297 93.1245 146.222 93.2781C146.146 93.4317 146.04 93.5684 145.91 93.68C145.663 93.898 145.341 94.0107 145.012 93.9939C144.683 93.9771 144.374 93.8321 144.15 93.59Z" fill="#80C46D"/>
<path d="M163.329 7.23269C163.637 6.3513 163.173 5.38857 162.294 5.08237C161.416 4.77617 160.454 5.24246 160.147 6.12385L153.214 26.0207C152.907 26.902 153.371 27.8648 154.249 28.171C155.128 28.4772 156.09 28.0109 156.397 27.1295L163.329 7.23269Z" fill="#EDB717"/>
<path d="M184.095 27.0852C184.809 26.485 184.904 25.4207 184.305 24.708C183.707 23.9953 182.642 23.9042 181.927 24.5044L171.528 33.2371C170.813 33.8373 170.718 34.9015 171.317 35.6142C171.915 36.3269 172.98 36.4181 173.695 35.8179L184.095 27.0852Z" fill="#EDB717"/>
<path d="M137.9 8.60992C137.9 7.67656 137.145 6.91992 136.215 6.91992C135.284 6.91992 134.53 7.67656 134.53 8.60992V17.1099C134.53 18.0433 135.284 18.7999 136.215 18.7999C137.145 18.7999 137.9 18.0433 137.9 17.1099V8.60992Z" fill="#EDB717"/>
<path d="M121.6 28.5209C122.2 29.2357 123.264 29.33 123.977 28.7316C124.689 28.1332 124.781 27.0686 124.18 26.3538L115.448 15.954C114.847 15.2392 113.783 15.1449 113.07 15.7433C112.358 16.3417 112.267 17.4063 112.867 18.1211L121.6 28.5209Z" fill="#EDB717"/>
<path d="M109.958 13.1734C110.559 13.8882 111.623 13.9825 112.336 13.3841C113.048 12.7857 113.139 11.7211 112.539 11.0063L103.807 0.606465C103.206 -0.108322 102.142 -0.202651 101.429 0.395776C100.717 0.994203 100.626 2.05877 101.226 2.77356L109.958 13.1734Z" fill="#EDB717"/>
</g>
<defs>
<clipPath id="clip0">
<rect width="271.36" height="149.63" fill="white"/>
</clipPath>
</defs>
</svg>
