<svg xmlns="http://www.w3.org/2000/svg" width="22" height="24.5" viewBox="0 0 22 24.5"><defs><style>.a{fill:#002a6a;}.b{fill:red;stroke:#fff;}.c{stroke:none;}.d{fill:none;}</style></defs><g transform="translate(-46 -525)"><path class="a" d="M13.5,25.656a2.382,2.382,0,0,0,2.375-2.375h-4.75A2.382,2.382,0,0,0,13.5,25.656Zm7.125-7.125V12.594c0-3.646-1.936-6.7-5.344-7.505V4.281a1.781,1.781,0,0,0-3.562,0v.807c-3.4.808-5.344,3.847-5.344,7.505v5.938L4,20.906v1.188H23V20.906ZM18.25,19.719H8.75V12.594c0-2.945,1.793-5.344,4.75-5.344s4.75,2.4,4.75,5.344Z" transform="translate(42 523.844)"/><g class="b" transform="translate(59 526)"><circle class="c" cx="4" cy="4" r="4"/><circle class="d" cx="4" cy="4" r="4.5"/></g></g></svg>