<svg xmlns="http://www.w3.org/2000/svg" xmlns:xlink="http://www.w3.org/1999/xlink" width="421" height="185" viewBox="0 0 421 185"><defs><style>.a{fill:#fffdfa;}.b{clip-path:url(#c);}.c{opacity:0.32;}.d{fill:none;stroke:#98d5ff;stroke-width:3px;}.e{filter:url(#a);}</style><filter id="a" x="-23" y="-20" width="481" height="245" filterUnits="userSpaceOnUse"><feOffset dx="7" dy="10" input="SourceAlpha"/><feGaussianBlur stdDeviation="10" result="b"/><feFlood flood-color="#78a3b9" flood-opacity="0.039"/><feComposite operator="in" in2="b"/><feComposite in="SourceGraphic"/></filter><clipPath id="c"><g class="e" transform="matrix(1, 0, 0, 1, 0, 0)"><rect class="a" width="421" height="185" rx="10" transform="translate(1429 100)"/></g></clipPath></defs><g class="b" transform="translate(-1429 -100)"><g class="c" transform="matrix(0.978, -0.208, 0.208, 0.978, 1104.887, -29.113)"><path class="d" d="M346.615,23.28S328.368-12.637,288.058.975s-78.8,35.643-117.936,12.276S99.535,4.271,65.108,19.97,29.745,10.985-.017,2.959" transform="matrix(0.999, -0.035, 0.035, 0.999, 351.846, 437.813)"/><path class="d" d="M346.615,23.28S328.368-12.637,288.058.975s-78.8,35.643-117.936,12.276S99.535,4.271,65.108,19.97,29.745,10.985-.017,2.959" transform="matrix(0.999, -0.035, 0.035, 0.999, 352.265, 449.815)"/><path class="d" d="M346.615,23.28S328.368-12.637,288.058.975s-78.8,35.643-117.936,12.276S99.535,4.271,65.108,19.97,29.745,10.985-.017,2.959" transform="matrix(0.999, -0.035, 0.035, 0.999, 352.684, 461.817)"/><path class="d" d="M346.615,23.28S328.368-12.637,288.058.975s-78.8,35.643-117.936,12.276S99.535,4.271,65.108,19.97,29.745,10.985-.017,2.959" transform="matrix(0.999, -0.035, 0.035, 0.999, 351.846, 401.813)"/><path class="d" d="M346.615,23.28S328.368-12.637,288.058.975s-78.8,35.643-117.936,12.276S99.535,4.271,65.108,19.97,29.745,10.985-.017,2.959" transform="matrix(0.999, -0.035, 0.035, 0.999, 352.265, 413.815)"/><path class="d" d="M346.615,23.28S328.368-12.637,288.058.975s-78.8,35.643-117.936,12.276S99.535,4.271,65.108,19.97,29.745,10.985-.017,2.959" transform="matrix(0.999, -0.035, 0.035, 0.999, 352.684, 425.817)"/></g></g></svg>