<svg xmlns="http://www.w3.org/2000/svg" xmlns:xlink="http://www.w3.org/1999/xlink" width="521" height="335" viewBox="0 0 521 335"><defs><style>.a{fill:url(#a);}.b{fill:url(#b);}.c{clip-path:url(#e);}.d{filter:url(#c);}</style><linearGradient id="a" x1="0.5" x2="0.5" y2="1" gradientUnits="objectBoundingBox"><stop offset="0" stop-color="#7b7b7b"/><stop offset="1" stop-color="#121212"/></linearGradient><linearGradient id="b" x1="0.071" y1="0.118" x2="1.027" y2="1.031" gradientUnits="objectBoundingBox"><stop offset="0" stop-color="#464646"/><stop offset="1" stop-color="#08090d"/></linearGradient><filter id="c" x="0" y="0" width="521" height="335" filterUnits="userSpaceOnUse"><feOffset dy="10" input="SourceAlpha"/><feGaussianBlur stdDeviation="10" result="d"/><feFlood flood-color="#3c3c3c" flood-opacity="0.251"/><feComposite operator="in" in2="d"/><feComposite in="SourceGraphic"/></filter><clipPath id="e"><rect class="a" width="461" height="275" rx="10" transform="translate(-869 1478)"/></clipPath></defs><g transform="translate(-290 -154)"><g class="d" transform="matrix(1, 0, 0, 1, 290, 154)"><rect class="b" width="461" height="275" rx="10" transform="translate(30 20)"/></g><g class="c" transform="translate(1189 -1304)"><g transform="translate(898 21.246)"><path class="a" d="M-4691.581-1156.161l11.768,9.154-.364.464-10.8-8.4.145,14.022-.593,0Zm28.276,1.3-9.744,10.09-.424-.41,10.594-10.973,1.952,14.782-.585.078Zm-48.809.085.527-.267,6.146,12.232,5.9-12.725.536.248-6.411,13.841Zm-24.785-1.738-10.25,9.574-.406-.434,11.15-10.409,1.183,14.867-.587.047Zm105.184,13.475,1.861-15.141,10.453,10.64-.425.415-9.591-9.763-1.714,13.921Zm-21.389-9.294.368-.462,10.737,8.543.963-17.023.591.033-1.026,18.164Zm-75.225-10.59,12.734,7.758-.309.5-11.685-7.119,1.738,13.916-.588.073Zm-24.84-4.984.535.248-5.749,12.421,13.632-3.307.139.576-14.822,3.6Zm63.5,6.394.269-.526,12.2,6.286-2.378-15.7.585-.089,2.553,16.85Zm-16.516,6.022,5.81-14.68-14.284,6.132-.233-.545,15.594-6.694-6.336,16.006Zm40.692-7.107,13.2-6.934.273.523-12.114,6.364,12.833,5.659-.238.54Zm-78.4-12.064.545-.234,5.4,12.581,6.647-12.35.52.281-7.229,13.428Zm120.168,10.682,7.954-11.138-14.007.724-.031-.592,15.233-.788-8.667,12.138Zm-24.14-6.126.234-.545,12.574,5.4-3.682-13.534.568-.156,4.007,14.718Zm-24.163-10.067.589.057-1.317,13.626,11.769-7.633.325.5-12.8,8.3Zm-26.609.583,12.229-2.033.1.585-11.113,1.847,9.878,10.159-.425.41Zm-18.447-3.559.554-.2,4.539,12.529,8.962-14.869.51.307-9.606,15.93Zm-7.873,12.612,1.375-17.411-12.316,8.658-.34-.483,13.345-9.383-1.475,18.667Zm-29.506-16.822,13.225,6.9-.273.524-12.138-6.328,2.666,13.773-.582.113Zm102.411-.738-10.918,8.812-.371-.46,11.868-9.584.117,14.912-.594,0Zm23.395,4.923,11.528-9.463.372.455-10.579,8.685,13.714,2.951-.124.578Zm-51.792,2.366,11.336-8.258-13.2-3.647.159-.568,14.378,3.97-12.331,8.979Zm38.367-13.749.561.184-4.25,13.013,13.15-4.884.206.554-14.3,5.312Zm-97.469-5.635-8.088,11.511-.486-.34,8.748-12.451,5.22,14.753-.559.2Zm41.9,6.774.222-.547,12.1,4.982-5.087-12.984.549-.217,5.595,14.277Zm-16.484,4.663,4.363-10.817,7.091,9.451-.474.354-6.458-8.612-3.975,9.845Zm51.783-15.36.593.012-.258,13.683,11.144-8.52.358.472-12.118,9.263Zm-69.058-2.861.589-.066,1.583,13.659,11.288-9.416.377.456-12.128,10.116Zm102.045.087,14.5,4.722-.184.564-13.332-4.344,4.774,12.824-.554.208Zm-126.351,11.31,11.243-7.814-13.433-4.036.17-.566,14.607,4.39-12.246,8.51Zm74.667-10.395.355-.474,10.954,8.2-.4-14.018.592-.017.439,15.244Zm33.188,1.285.262-.531,12.277,6.057-2.967-13.706.579-.125,3.226,14.9Zm-65.951-.882,7.149-10.862.492.325-6.616,10.058,9.663,1.111-.067.587Zm12.965-5.121.233-.545,12.513,5.331-5.225-12.777.547-.224,5.771,14.112Zm-25.1,3.984.1-15.254,11.615,9.352-.371.462-10.659-8.583-.088,14.025Zm-18.282-14.5,13.365,2.927-.127.578-12.244-2.679,5.525,12.937-.544.234Zm92.327,1.019.521.283-6.386,11.756,12.566-1.4.066.59-13.69,1.526Zm16.778-2.408.442-.391,9.264,10.531,2.42-13.468.58.106-2.635,14.676Zm-53.7-1.5,14.884.927-.039.592-13.659-.851,8.029,11.5-.487.338Zm-74.066,10.258,10.617-8.626.375.46-9.52,7.734,13.847,1.524-.067.587Zm88.051-4.441,13.662-.828-9.376-10.435.438-.394,10.2,11.345-14.891.9Zm-39.391-.859,7.449-11.475-13.958,1.34-.057-.59,15.178-1.458-8.117,12.506Zm68.394-15.291,13.1,7.489-.293.516-12.114-6.925,1.238,13.086-.59.054Zm-92.416,11.8,3.082-16.062-13.73,10.369-.358-.472,14.958-11.3-3.369,17.573Zm39.545-15.188.589.047-.946,11.767,11.963-6.854.3.514-12.936,7.413Zm35.428,2.383.515-.288,5.151,9.312,5.91-12.753.535.248-6.4,13.812Zm-20.816-8.088,13.722,5.837-.231.545-12.593-5.357,3.731,13.52-.571.158Zm54.559,11.673,10.2-10.878.431.406-9.359,9.984,13.977,1.146-.05.589Zm-94.679-14.954.515.288-6.708,12.034,13.429-.389.016.592-14.47.42Zm-33.092-2.2,14.015,5.713-.222.547-12.681-5.166,5.666,13.159-.546.234Zm49.093-1.731-9.886,8.484-.386-.448,10.821-9.286.545,15.827-.592.021Zm58.457,1.026.485-.344,7.924,11.159,3.9-13.47.571.165-4.241,14.647Zm-18.119,8.85,11.944-6.793-12.149-7.225.3-.507,13.02,7.744-12.824,7.3Zm-34.7-11.647,14.912.316-.011.59-13.688-.287,8.494,11.163-.47.359Zm68.521,8.736,11.971-6.632-12.959-5.373.228-.547,14.09,5.843-13.045,7.227Zm-116.062-9.906.29-.517,11.952,6.67-2.272-13.841.587-.1,2.467,15.053Zm18.905,6.4,1.27-16.926,11.908,12.6-.431.406-10.987-11.626-1.17,15.591Zm49.08-17.28.591-.021.553,15.419,9.544-10.149.431.406-10.516,11.182Zm33.5-5.14,13.319,6.72-.267.528-12.221-6.165,2.845,13.737-.578.118Zm-53.228,13.728,13.239-6.767-12.4-3.731.169-.566,13.813,4.156-14.549,7.434Zm-53.158-16.063.594.01-.238,13.688,11.133-8.538.36.469-12.1,9.284Zm130.3,14.52,6.245-12.178-13.748,2.755-.116-.58,14.952-3-6.806,13.268Zm-93.874-1.439,6.057-14,7.029,13.154-.521.281-6.451-12.074-5.573,12.871Zm60.755-12.23.493.325-7.532,11.426,13.969-1.245.053.59-15.19,1.356Zm-25.932-11.7.577.137-3.469,14.576,12.851-6.465.263.526-13.983,7.038Zm-59.375,2.769.512-.295,6.805,11.876,5.183-13.032.552.219-5.638,14.171Zm72.294,11.741,7.123-11.8-10.053-.087,0-.592,11.093.1-7.658,12.69Zm31.847-16.074h.592l-.02,13.683,10.992-8.711.366.465-11.952,9.473Zm-64.741,13.24,3.985-14.82,9.231,11.68-.466.368-8.5-10.758-3.682,13.685Zm-16.315-15.058.57.156-3.226,11.767,13.523-4.021.169.566-14.543,4.326Zm59.226,11.831.017-.59,13.681.321-8.469-11.183.47-.356,9.212,12.159Zm-103.169-6.3,12.292-8.449.335.486-11.282,7.755,13.416,4.1-.171.566Zm72.42-16.261,11.768,9.154-.364.467-10.8-8.4.145,14.025-.593,0Zm28.276,1.307-9.744,10.09-.424-.41,10.594-10.973,1.952,14.782-.585.075Zm-48.809.085.527-.266,6.146,12.232,5.9-12.727.536.25-6.411,13.841Zm-24.785-1.738-10.25,9.574-.406-.434,11.15-10.409,1.183,14.867-.587.045Zm105.184,13.473,1.861-15.138,10.453,10.64-.425.413-9.591-9.763-1.714,13.921Zm-21.389-9.291.368-.462,10.737,8.543.963-17.025.591.033-1.026,18.167Zm-75.225-10.59,12.734,7.758-.309.5-11.685-7.121,1.738,13.918-.588.073Zm-24.84-4.984.535.248-5.749,12.421,13.632-3.307.139.576-14.822,3.6Zm63.5,6.394.269-.526,12.2,6.286-2.378-15.7.585-.089,2.553,16.848Zm-16.516,6.022,5.81-14.681-14.284,6.13-.233-.543,15.594-6.693-6.336,16Zm40.692-7.109,13.2-6.935.273.524-12.114,6.366,12.833,5.656-.238.542Zm-78.4-12.062.545-.234,5.4,12.579,6.647-12.35.52.281-7.229,13.43Zm120.168,10.68,7.954-11.135-14.007.724-.031-.592,15.233-.788-8.667,12.138Zm-24.14-6.125.234-.543,12.574,5.4-3.682-13.531.568-.156,4.007,14.716Zm-24.163-10.065.589.057-1.317,13.624,11.769-7.633.325.5-12.8,8.3Zm-26.609.583,12.229-2.033.1.583-11.113,1.849,9.878,10.156-.425.413Zm-18.447-3.561.554-.2,4.539,12.529,8.962-14.867.51.307-9.606,15.928Zm-7.873,12.614,1.375-17.411-12.316,8.656-.34-.483,13.345-9.383-1.475,18.669Zm-29.506-16.822,13.225,6.895-.273.524-12.138-6.326,2.666,13.772-.582.111Zm102.411-.74-10.918,8.815-.371-.46,11.868-9.586.117,14.914-.594.005Zm23.395,4.925,11.528-9.463.372.456-10.579,8.685,13.714,2.948-.124.578Zm-51.792,2.363,11.336-8.258-13.2-3.644.159-.571,14.378,3.97-12.331,8.982Zm38.367-13.747.561.184-4.25,13.013,13.15-4.887.206.554-14.3,5.314Zm-97.469-5.637-8.088,11.51-.486-.34,8.751-12.449,5.216,14.751-.559.2Zm41.9,6.774.222-.547,12.1,4.984-5.087-12.987.549-.214,5.595,14.275Zm-16.484,4.663,4.363-10.817,7.091,9.454-.474.354-6.458-8.612-3.975,9.843Zm51.783-15.358.593.009-.258,13.683,11.144-8.517.358.472-12.118,9.26Zm-69.058-2.861.589-.068,1.583,13.661,11.288-9.416.377.455-12.128,10.117Zm102.045.085,14.5,4.724-.184.564-13.332-4.347,4.774,12.826-.554.205Zm-126.351,11.31,11.243-7.812-13.433-4.036.17-.568,14.607,4.392-12.246,8.51Zm74.667-10.395.355-.474,10.954,8.206-.4-14.018.592-.019.439,15.247Zm33.188,1.288.262-.531,12.277,6.057-2.967-13.709.579-.125,3.226,14.907Zm-65.951-.884,7.149-10.862.492.325-6.616,10.058,9.663,1.111-.067.587Zm12.965-5.121.233-.545,12.513,5.333-5.225-12.777.547-.224,5.771,14.11Zm-25.1,3.984.1-15.254,11.615,9.354-.371.46-10.659-8.583-.088,14.027Zm-18.282-14.5,13.365,2.925-.127.578-12.244-2.679,5.525,12.938-.544.234Zm92.327,1.016.521.283-6.386,11.758,12.566-1.4.066.587-13.69,1.528Zm16.778-2.408.442-.389,9.264,10.531,2.42-13.468.58.1-2.635,14.676Zm-53.7-1.5,14.884.927-.039.59-13.659-.849,8.029,11.5-.487.34Zm-74.066,10.258,10.617-8.625.375.457-9.52,7.734,13.847,1.523-.067.59Zm88.051-4.442,13.662-.828-9.376-10.435.438-.4,10.2,11.348-14.891.9Zm-39.391-.858,7.449-11.475-13.958,1.34-.057-.59,15.178-1.457-8.117,12.506Zm68.394-15.294,13.1,7.491-.293.514-12.114-6.922,1.238,13.083-.59.057Zm-92.416,11.805,3.082-16.063-13.73,10.369-.358-.474,14.958-11.294-3.369,17.572Zm39.545-15.19.589.05-.946,11.767,11.963-6.854.3.514-12.936,7.411Zm35.428,2.385.515-.288,5.151,9.312,5.91-12.756.535.25-6.4,13.813Zm-20.816-8.09,13.722,5.84-.231.545-12.593-5.359,3.731,13.52-.571.158Zm54.559,11.673,10.2-10.876.431.4-9.359,9.984,13.977,1.149-.05.59Zm-94.679-14.954.515.29-6.708,12.034,13.429-.389.016.592-14.47.42Zm-33.092-2.2,14.015,5.71-.222.547-12.681-5.163,5.666,13.159-.546.233Zm49.093-1.734-9.886,8.486-.386-.448,10.821-9.291.545,15.831-.592.022Zm58.457,1.026.485-.342,7.924,11.159,3.9-13.47.571.163-4.241,14.65Zm-18.119,8.852,11.944-6.8-12.149-7.222.3-.51,13.02,7.743-12.824,7.3Zm-34.7-11.65,14.912.316-.011.592-13.688-.287,8.494,11.161-.47.358Zm68.521,8.739,11.971-6.635-12.959-5.371.228-.547,14.09,5.84-13.045,7.229Zm-116.062-9.907.29-.517,11.952,6.671-2.272-13.841.587-.1,2.467,15.053Zm18.905,6.4,1.27-16.926,11.908,12.6-.431.406-10.987-11.626-1.17,15.591Zm49.08-17.282.591-.019.553,15.416,9.544-10.147.431.4-10.516,11.183Zm33.5-5.137,13.319,6.72-.267.526-12.221-6.166,2.845,13.737-.578.12Zm-53.228,13.725,13.239-6.765-12.4-3.731.169-.566,13.813,4.154-14.549,7.437Zm-53.158-16.063.594.01-.238,13.69,11.133-8.541.36.472-12.1,9.284Zm130.3,14.52,6.245-12.178-13.748,2.757-.116-.58,14.952-3-6.806,13.268Zm-93.874-1.436,6.057-14,7.029,13.152-.521.281-6.451-12.074-5.573,12.871Zm60.755-12.232.493.325-7.532,11.428,13.969-1.245.053.59-15.19,1.354Zm-25.932-11.7.577.137-3.469,14.575,12.851-6.466.263.529-13.983,7.036Zm-59.375,2.769.512-.295,6.805,11.874,5.183-13.03.552.219-5.638,14.169Zm72.3,11.739,7.12-11.8-10.053-.087,0-.592,11.093.1-7.658,12.687Zm31.845-16.074h.592l-.02,13.685,10.992-8.711.366.465-11.952,9.47Zm-64.741,13.242,3.985-14.82,9.231,11.68-.466.365-8.5-10.755-3.682,13.683Zm-16.315-15.058.57.156-3.226,11.765,13.523-4.02.169.566-14.543,4.326Zm59.226,11.831.017-.592,13.681.321-8.469-11.18.47-.359,9.212,12.159Zm-103.169-6.3,12.292-8.451.335.488-11.282,7.755,13.416,4.1-.171.566Z" transform="translate(3363.622 2879.754)"/><path class="a" d="M-4691.581-1156.161l11.768,9.154-.364.464-10.8-8.4.145,14.022-.593,0Zm28.276,1.3-9.744,10.09-.424-.41,10.594-10.973,1.952,14.782-.585.078Zm-48.809.085.527-.267,6.146,12.232,5.9-12.725.536.248-6.411,13.841Zm-24.785-1.738-10.25,9.574-.406-.434,11.15-10.409,1.183,14.867-.587.047Zm105.184,13.475,1.861-15.141,10.453,10.64-.425.415-9.591-9.763-1.714,13.921Zm-21.389-9.294.368-.462,10.737,8.543.963-17.023.591.033-1.026,18.164Zm-75.225-10.59,12.734,7.758-.309.5-11.685-7.119,1.738,13.916-.588.073Zm-24.84-4.984.535.248-5.749,12.421,13.632-3.307.139.576-14.822,3.6Zm63.5,6.394.269-.526,12.2,6.286-2.378-15.7.585-.089,2.553,16.85Zm-16.516,6.022,5.81-14.68-14.284,6.132-.233-.545,15.594-6.694-6.336,16.006Zm40.692-7.107,13.2-6.934.273.523-12.114,6.364,12.833,5.659-.238.54Zm-78.4-12.064.545-.234,5.4,12.581,6.647-12.35.52.281-7.229,13.428Zm120.168,10.682,7.954-11.138-14.007.724-.031-.592,15.233-.788-8.667,12.138Zm-24.14-6.126.234-.545,12.574,5.4-3.682-13.534.568-.156,4.007,14.718Zm-24.163-10.067.589.057-1.317,13.626,11.769-7.633.325.5-12.8,8.3Zm-26.609.583,12.229-2.033.1.585-11.113,1.847,9.878,10.159-.425.41Zm-18.447-3.559.554-.2,4.539,12.529,8.962-14.869.51.307-9.606,15.93Zm-7.873,12.612,1.375-17.411-12.316,8.658-.34-.483,13.345-9.383-1.475,18.667Zm-29.506-16.822,13.225,6.9-.273.524-12.138-6.328,2.666,13.773-.582.113Zm102.411-.738-10.918,8.812-.371-.46,11.868-9.584.117,14.912-.594,0Zm23.395,4.923,11.528-9.463.372.455-10.579,8.685,13.714,2.951-.124.578Zm-51.792,2.366,11.336-8.258-13.2-3.647.159-.568,14.378,3.97-12.331,8.979Zm38.367-13.749.561.184-4.25,13.013,13.15-4.884.206.554-14.3,5.312Zm-97.469-5.635-8.088,11.511-.486-.34,8.748-12.451,5.22,14.753-.559.2Zm41.9,6.774.222-.547,12.1,4.982-5.087-12.984.549-.217,5.595,14.277Zm-16.484,4.663,4.363-10.817,7.091,9.451-.474.354-6.458-8.612-3.975,9.845Zm51.783-15.36.593.012-.258,13.683,11.144-8.52.358.472-12.118,9.263Zm-69.058-2.861.589-.066,1.583,13.659,11.288-9.416.377.456-12.128,10.116Zm102.045.087,14.5,4.722-.184.564-13.332-4.344,4.774,12.824-.554.208Zm-126.351,11.31,11.243-7.814-13.433-4.036.17-.566,14.607,4.39-12.246,8.51Zm74.667-10.395.355-.474,10.954,8.2-.4-14.018.592-.017.439,15.244Zm33.188,1.285.262-.531,12.277,6.057-2.967-13.706.579-.125,3.226,14.9Zm-65.951-.882,7.149-10.862.492.325-6.616,10.058,9.663,1.111-.067.587Zm12.965-5.121.233-.545,12.513,5.331-5.225-12.777.547-.224,5.771,14.112Zm-25.1,3.984.1-15.254,11.615,9.352-.371.462-10.659-8.583-.088,14.025Zm-18.282-14.5,13.365,2.927-.127.578-12.244-2.679,5.525,12.937-.544.234Zm92.327,1.019.521.283-6.386,11.756,12.566-1.4.066.59-13.69,1.526Zm16.778-2.408.442-.391,9.264,10.531,2.42-13.468.58.106-2.635,14.676Zm-53.7-1.5,14.884.927-.039.592-13.659-.851,8.029,11.5-.487.338Zm-74.066,10.258,10.617-8.626.375.46-9.52,7.734,13.847,1.524-.067.587Zm88.051-4.441,13.662-.828-9.376-10.435.438-.394,10.2,11.345-14.891.9Zm-39.391-.859,7.449-11.475-13.958,1.34-.057-.59,15.178-1.458-8.117,12.506Zm68.394-15.291,13.1,7.489-.293.516-12.114-6.925,1.238,13.086-.59.054Zm-92.416,11.8,3.082-16.062-13.73,10.369-.358-.472,14.958-11.3-3.369,17.573Zm39.545-15.188.589.047-.946,11.767,11.963-6.854.3.514-12.936,7.413Zm35.428,2.383.515-.288,5.151,9.312,5.91-12.753.535.248-6.4,13.812Zm-20.816-8.088,13.722,5.837-.231.545-12.593-5.357,3.731,13.52-.571.158Zm54.559,11.673,10.2-10.878.431.406-9.359,9.984,13.977,1.146-.05.589Zm-94.679-14.954.515.288-6.708,12.034,13.429-.389.016.592-14.47.42Zm-33.092-2.2,14.015,5.713-.222.547-12.681-5.166,5.666,13.159-.546.234Zm49.093-1.731-9.886,8.484-.386-.448,10.821-9.286.545,15.827-.592.021Zm58.457,1.026.485-.344,7.924,11.159,3.9-13.47.571.165-4.241,14.647Zm-18.119,8.85,11.944-6.793-12.149-7.225.3-.507,13.02,7.744-12.824,7.3Zm-34.7-11.647,14.912.316-.011.59-13.688-.287,8.494,11.163-.47.359Zm68.521,8.736,11.971-6.632-12.959-5.373.228-.547,14.09,5.843-13.045,7.227Zm-116.062-9.906.29-.517,11.952,6.67-2.272-13.841.587-.1,2.467,15.053Zm18.905,6.4,1.27-16.926,11.908,12.6-.431.406-10.987-11.626-1.17,15.591Zm49.08-17.28.591-.021.553,15.419,9.544-10.149.431.406-10.516,11.182Zm33.5-5.14,13.319,6.72-.267.528-12.221-6.165,2.845,13.737-.578.118Zm-53.228,13.728,13.239-6.767-12.4-3.731.169-.566,13.813,4.156-14.549,7.434Zm-53.158-16.063.594.01-.238,13.688,11.133-8.538.36.469-12.1,9.284Zm130.3,14.52,6.245-12.178-13.748,2.755-.116-.58,14.952-3-6.806,13.268Zm-93.874-1.439,6.057-14,7.029,13.154-.521.281-6.451-12.074-5.573,12.871Zm60.755-12.23.493.325-7.532,11.426,13.969-1.245.053.59-15.19,1.356Zm-25.932-11.7.577.137-3.469,14.576,12.851-6.465.263.526-13.983,7.038Zm-59.375,2.769.512-.295,6.805,11.876,5.183-13.032.552.219-5.638,14.171Zm72.294,11.741,7.123-11.8-10.053-.087,0-.592,11.093.1-7.658,12.69Zm31.847-16.074h.592l-.02,13.683,10.992-8.711.366.465-11.952,9.473Zm-64.741,13.24,3.985-14.82,9.231,11.68-.466.368-8.5-10.758-3.682,13.685Zm-16.315-15.058.57.156-3.226,11.767,13.523-4.021.169.566-14.543,4.326Zm59.226,11.831.017-.59,13.681.321-8.469-11.183.47-.356,9.212,12.159Zm-103.169-6.3,12.292-8.449.335.486-11.282,7.755,13.416,4.1-.171.566Zm72.42-16.261,11.768,9.154-.364.467-10.8-8.4.145,14.025-.593,0Zm28.276,1.307-9.744,10.09-.424-.41,10.594-10.973,1.952,14.782-.585.075Zm-48.809.085.527-.266,6.146,12.232,5.9-12.727.536.25-6.411,13.841Zm-24.785-1.738-10.25,9.574-.406-.434,11.15-10.409,1.183,14.867-.587.045Zm105.184,13.473,1.861-15.138,10.453,10.64-.425.413-9.591-9.763-1.714,13.921Zm-21.389-9.291.368-.462,10.737,8.543.963-17.025.591.033-1.026,18.167Zm-75.225-10.59,12.734,7.758-.309.5-11.685-7.121,1.738,13.918-.588.073Zm-24.84-4.984.535.248-5.749,12.421,13.632-3.307.139.576-14.822,3.6Zm63.5,6.394.269-.526,12.2,6.286-2.378-15.7.585-.089,2.553,16.848Zm-16.516,6.022,5.81-14.681-14.284,6.13-.233-.543,15.594-6.693-6.336,16Zm40.692-7.109,13.2-6.935.273.524-12.114,6.366,12.833,5.656-.238.542Zm-78.4-12.062.545-.234,5.4,12.579,6.647-12.35.52.281-7.229,13.43Zm120.168,10.68,7.954-11.135-14.007.724-.031-.592,15.233-.788-8.667,12.138Zm-24.14-6.125.234-.543,12.574,5.4-3.682-13.531.568-.156,4.007,14.716Zm-24.163-10.065.589.057-1.317,13.624,11.769-7.633.325.5-12.8,8.3Zm-26.609.583,12.229-2.033.1.583-11.113,1.849,9.878,10.156-.425.413Zm-18.447-3.561.554-.2,4.539,12.529,8.962-14.867.51.307-9.606,15.928Zm-7.873,12.614,1.375-17.411-12.316,8.656-.34-.483,13.345-9.383-1.475,18.669Zm-29.506-16.822,13.225,6.895-.273.524-12.138-6.326,2.666,13.772-.582.111Zm102.411-.74-10.918,8.815-.371-.46,11.868-9.586.117,14.914-.594.005Zm23.395,4.925,11.528-9.463.372.456-10.579,8.685,13.714,2.948-.124.578Zm-51.792,2.363,11.336-8.258-13.2-3.644.159-.571,14.378,3.97-12.331,8.982Zm38.367-13.747.561.184-4.25,13.013,13.15-4.887.206.554-14.3,5.314Zm-97.469-5.637-8.088,11.51-.486-.34,8.751-12.449,5.216,14.751-.559.2Zm41.9,6.774.222-.547,12.1,4.984-5.087-12.987.549-.214,5.595,14.275Zm-16.484,4.663,4.363-10.817,7.091,9.454-.474.354-6.458-8.612-3.975,9.843Zm51.783-15.358.593.009-.258,13.683,11.144-8.517.358.472-12.118,9.26Zm-69.058-2.861.589-.068,1.583,13.661,11.288-9.416.377.455-12.128,10.117Zm102.045.085,14.5,4.724-.184.564-13.332-4.347,4.774,12.826-.554.205Zm-126.351,11.31,11.243-7.812-13.433-4.036.17-.568,14.607,4.392-12.246,8.51Zm74.667-10.395.355-.474,10.954,8.206-.4-14.018.592-.019.439,15.247Zm33.188,1.288.262-.531,12.277,6.057-2.967-13.709.579-.125,3.226,14.907Zm-65.951-.884,7.149-10.862.492.325-6.616,10.058,9.663,1.111-.067.587Zm12.965-5.121.233-.545,12.513,5.333-5.225-12.777.547-.224,5.771,14.11Zm-25.1,3.984.1-15.254,11.615,9.354-.371.46-10.659-8.583-.088,14.027Zm-18.282-14.5,13.365,2.925-.127.578-12.244-2.679,5.525,12.938-.544.234Zm92.327,1.016.521.283-6.386,11.758,12.566-1.4.066.587-13.69,1.528Zm16.778-2.408.442-.389,9.264,10.531,2.42-13.468.58.1-2.635,14.676Zm-53.7-1.5,14.884.927-.039.59-13.659-.849,8.029,11.5-.487.34Zm-74.066,10.258,10.617-8.625.375.457-9.52,7.734,13.847,1.523-.067.59Zm88.051-4.442,13.662-.828-9.376-10.435.438-.4,10.2,11.348-14.891.9Zm-39.391-.858,7.449-11.475-13.958,1.34-.057-.59,15.178-1.457-8.117,12.506Zm68.394-15.294,13.1,7.491-.293.514-12.114-6.922,1.238,13.083-.59.057Zm-92.416,11.805,3.082-16.063-13.73,10.369-.358-.474,14.958-11.294-3.369,17.572Zm39.545-15.19.589.05-.946,11.767,11.963-6.854.3.514-12.936,7.411Zm35.428,2.385.515-.288,5.151,9.312,5.91-12.756.535.25-6.4,13.813Zm-20.816-8.09,13.722,5.84-.231.545-12.593-5.359,3.731,13.52-.571.158Zm54.559,11.673,10.2-10.876.431.4-9.359,9.984,13.977,1.149-.05.59Zm-94.679-14.954.515.29-6.708,12.034,13.429-.389.016.592-14.47.42Zm-33.092-2.2,14.015,5.71-.222.547-12.681-5.163,5.666,13.159-.546.233Zm49.093-1.734-9.886,8.486-.386-.448,10.821-9.291.545,15.831-.592.022Zm58.457,1.026.485-.342,7.924,11.159,3.9-13.47.571.163-4.241,14.65Zm-18.119,8.852,11.944-6.8-12.149-7.222.3-.51,13.02,7.743-12.824,7.3Zm-34.7-11.65,14.912.316-.011.592-13.688-.287,8.494,11.161-.47.358Zm68.521,8.739,11.971-6.635-12.959-5.371.228-.547,14.09,5.84-13.045,7.229Zm-116.062-9.907.29-.517,11.952,6.671-2.272-13.841.587-.1,2.467,15.053Zm18.905,6.4,1.27-16.926,11.908,12.6-.431.406-10.987-11.626-1.17,15.591Zm49.08-17.282.591-.019.553,15.416,9.544-10.147.431.4-10.516,11.183Zm33.5-5.137,13.319,6.72-.267.526-12.221-6.166,2.845,13.737-.578.12Zm-53.228,13.725,13.239-6.765-12.4-3.731.169-.566,13.813,4.154-14.549,7.437Zm-53.158-16.063.594.01-.238,13.69,11.133-8.541.36.472-12.1,9.284Zm130.3,14.52,6.245-12.178-13.748,2.757-.116-.58,14.952-3-6.806,13.268Zm-93.874-1.436,6.057-14,7.029,13.152-.521.281-6.451-12.074-5.573,12.871Zm60.755-12.232.493.325-7.532,11.428,13.969-1.245.053.59-15.19,1.354Zm-25.932-11.7.577.137-3.469,14.575,12.851-6.466.263.529-13.983,7.036Zm-59.375,2.769.512-.295,6.805,11.874,5.183-13.03.552.219-5.638,14.169Zm72.3,11.739,7.12-11.8-10.053-.087,0-.592,11.093.1-7.658,12.687Zm31.845-16.074h.592l-.02,13.685,10.992-8.711.366.465-11.952,9.47Zm-64.741,13.242,3.985-14.82,9.231,11.68-.466.365-8.5-10.755-3.682,13.683Zm-16.315-15.058.57.156-3.226,11.765,13.523-4.02.169.566-14.543,4.326Zm59.226,11.831.017-.592,13.681.321-8.469-11.18.47-.359,9.212,12.159Zm-103.169-6.3,12.292-8.451.335.488-11.282,7.755,13.416,4.1-.171.566Z" transform="translate(3080.268 2879.754)"/><path class="a" d="M-4691.581-1156.161l11.768,9.154-.364.464-10.8-8.4.145,14.022-.593,0Zm28.276,1.3-9.744,10.09-.424-.41,10.594-10.973,1.952,14.782-.585.078Zm-48.809.085.527-.267,6.146,12.232,5.9-12.725.536.248-6.411,13.841Zm-24.785-1.738-10.25,9.574-.406-.434,11.15-10.409,1.183,14.867-.587.047Zm105.184,13.475,1.861-15.141,10.453,10.64-.425.415-9.591-9.763-1.714,13.921Zm-21.389-9.294.368-.462,10.737,8.543.963-17.023.591.033-1.026,18.164Zm-75.225-10.59,12.734,7.758-.309.5-11.685-7.119,1.738,13.916-.588.073Zm-24.84-4.984.535.248-5.749,12.421,13.632-3.307.139.576-14.822,3.6Zm63.5,6.394.269-.526,12.2,6.286-2.378-15.7.585-.089,2.553,16.85Zm-16.516,6.022,5.81-14.68-14.284,6.132-.233-.545,15.594-6.694-6.336,16.006Zm40.692-7.107,13.2-6.934.273.523-12.114,6.364,12.833,5.659-.238.54Zm-78.4-12.064.545-.234,5.4,12.581,6.647-12.35.52.281-7.229,13.428Zm120.168,10.682,7.954-11.138-14.007.724-.031-.592,15.233-.788-8.667,12.138Zm-24.14-6.126.234-.545,12.574,5.4-3.682-13.534.568-.156,4.007,14.718Zm-24.163-10.067.589.057-1.317,13.626,11.769-7.633.325.5-12.8,8.3Zm-26.609.583,12.229-2.033.1.585-11.113,1.847,9.878,10.159-.425.41Zm-18.447-3.559.554-.2,4.539,12.529,8.962-14.869.51.307-9.606,15.93Zm-7.873,12.612,1.375-17.411-12.316,8.658-.34-.483,13.345-9.383-1.475,18.667Zm-29.506-16.822,13.225,6.9-.273.524-12.138-6.328,2.666,13.773-.582.113Zm102.411-.738-10.918,8.812-.371-.46,11.868-9.584.117,14.912-.594,0Zm23.395,4.923,11.528-9.463.372.455-10.579,8.685,13.714,2.951-.124.578Zm-51.792,2.366,11.336-8.258-13.2-3.647.159-.568,14.378,3.97-12.331,8.979Zm38.367-13.749.561.184-4.25,13.013,13.15-4.884.206.554-14.3,5.312Zm-97.469-5.635-8.088,11.511-.486-.34,8.748-12.451,5.22,14.753-.559.2Zm41.9,6.774.222-.547,12.1,4.982-5.087-12.984.549-.217,5.595,14.277Zm-16.484,4.663,4.363-10.817,7.091,9.451-.474.354-6.458-8.612-3.975,9.845Zm51.783-15.36.593.012-.258,13.683,11.144-8.52.358.472-12.118,9.263Zm-69.058-2.861.589-.066,1.583,13.659,11.288-9.416.377.456-12.128,10.116Zm102.045.087,14.5,4.722-.184.564-13.332-4.344,4.774,12.824-.554.208Zm-126.351,11.31,11.243-7.814-13.433-4.036.17-.566,14.607,4.39-12.246,8.51Zm74.667-10.395.355-.474,10.954,8.2-.4-14.018.592-.017.439,15.244Zm33.188,1.285.262-.531,12.277,6.057-2.967-13.706.579-.125,3.226,14.9Zm-65.951-.882,7.149-10.862.492.325-6.616,10.058,9.663,1.111-.067.587Zm12.965-5.121.233-.545,12.513,5.331-5.225-12.777.547-.224,5.771,14.112Zm-25.1,3.984.1-15.254,11.615,9.352-.371.462-10.659-8.583-.088,14.025Zm-18.282-14.5,13.365,2.927-.127.578-12.244-2.679,5.525,12.937-.544.234Zm92.327,1.019.521.283-6.386,11.756,12.566-1.4.066.59-13.69,1.526Zm16.778-2.408.442-.391,9.264,10.531,2.42-13.468.58.106-2.635,14.676Zm-53.7-1.5,14.884.927-.039.592-13.659-.851,8.029,11.5-.487.338Zm-74.066,10.258,10.617-8.626.375.46-9.52,7.734,13.847,1.524-.067.587Zm88.051-4.441,13.662-.828-9.376-10.435.438-.394,10.2,11.345-14.891.9Zm-39.391-.859,7.449-11.475-13.958,1.34-.057-.59,15.178-1.458-8.117,12.506Zm68.394-15.291,13.1,7.489-.293.516-12.114-6.925,1.238,13.086-.59.054Zm-92.416,11.8,3.082-16.062-13.73,10.369-.358-.472,14.958-11.3-3.369,17.573Zm39.545-15.188.589.047-.946,11.767,11.963-6.854.3.514-12.936,7.413Zm35.428,2.383.515-.288,5.151,9.312,5.91-12.753.535.248-6.4,13.812Zm-20.816-8.088,13.722,5.837-.231.545-12.593-5.357,3.731,13.52-.571.158Zm54.559,11.673,10.2-10.878.431.406-9.359,9.984,13.977,1.146-.05.589Zm-94.679-14.954.515.288-6.708,12.034,13.429-.389.016.592-14.47.42Zm-33.092-2.2,14.015,5.713-.222.547-12.681-5.166,5.666,13.159-.546.234Zm49.093-1.731-9.886,8.484-.386-.448,10.821-9.286.545,15.827-.592.021Zm58.457,1.026.485-.344,7.924,11.159,3.9-13.47.571.165-4.241,14.647Zm-18.119,8.85,11.944-6.793-12.149-7.225.3-.507,13.02,7.744-12.824,7.3Zm-34.7-11.647,14.912.316-.011.59-13.688-.287,8.494,11.163-.47.359Zm68.521,8.736,11.971-6.632-12.959-5.373.228-.547,14.09,5.843-13.045,7.227Zm-116.062-9.906.29-.517,11.952,6.67-2.272-13.841.587-.1,2.467,15.053Zm18.905,6.4,1.27-16.926,11.908,12.6-.431.406-10.987-11.626-1.17,15.591Zm49.08-17.28.591-.021.553,15.419,9.544-10.149.431.406-10.516,11.182Zm33.5-5.14,13.319,6.72-.267.528-12.221-6.165,2.845,13.737-.578.118Zm-53.228,13.728,13.239-6.767-12.4-3.731.169-.566,13.813,4.156-14.549,7.434Zm-53.158-16.063.594.01-.238,13.688,11.133-8.538.36.469-12.1,9.284Zm130.3,14.52,6.245-12.178-13.748,2.755-.116-.58,14.952-3-6.806,13.268Zm-93.874-1.439,6.057-14,7.029,13.154-.521.281-6.451-12.074-5.573,12.871Zm60.755-12.23.493.325-7.532,11.426,13.969-1.245.053.59-15.19,1.356Zm-25.932-11.7.577.137-3.469,14.576,12.851-6.465.263.526-13.983,7.038Zm-59.375,2.769.512-.295,6.805,11.876,5.183-13.032.552.219-5.638,14.171Zm72.294,11.741,7.123-11.8-10.053-.087,0-.592,11.093.1-7.658,12.69Zm31.847-16.074h.592l-.02,13.683,10.992-8.711.366.465-11.952,9.473Zm-64.741,13.24,3.985-14.82,9.231,11.68-.466.368-8.5-10.758-3.682,13.685Zm-16.315-15.058.57.156-3.226,11.767,13.523-4.021.169.566-14.543,4.326Zm59.226,11.831.017-.59,13.681.321-8.469-11.183.47-.356,9.212,12.159Zm-103.169-6.3,12.292-8.449.335.486-11.282,7.755,13.416,4.1-.171.566Zm72.42-16.261,11.768,9.154-.364.467-10.8-8.4.145,14.025-.593,0Zm28.276,1.307-9.744,10.09-.424-.41,10.594-10.973,1.952,14.782-.585.075Zm-48.809.085.527-.266,6.146,12.232,5.9-12.727.536.25-6.411,13.841Zm-24.785-1.738-10.25,9.574-.406-.434,11.15-10.409,1.183,14.867-.587.045Zm105.184,13.473,1.861-15.138,10.453,10.64-.425.413-9.591-9.763-1.714,13.921Zm-21.389-9.291.368-.462,10.737,8.543.963-17.025.591.033-1.026,18.167Zm-75.225-10.59,12.734,7.758-.309.5-11.685-7.121,1.738,13.918-.588.073Zm-24.84-4.984.535.248-5.749,12.421,13.632-3.307.139.576-14.822,3.6Zm63.5,6.394.269-.526,12.2,6.286-2.378-15.7.585-.089,2.553,16.848Zm-16.516,6.022,5.81-14.681-14.284,6.13-.233-.543,15.594-6.693-6.336,16Zm40.692-7.109,13.2-6.935.273.524-12.114,6.366,12.833,5.656-.238.542Zm-78.4-12.062.545-.234,5.4,12.579,6.647-12.35.52.281-7.229,13.43Zm120.168,10.68,7.954-11.135-14.007.724-.031-.592,15.233-.788-8.667,12.138Zm-24.14-6.125.234-.543,12.574,5.4-3.682-13.531.568-.156,4.007,14.716Zm-24.163-10.065.589.057-1.317,13.624,11.769-7.633.325.5-12.8,8.3Zm-26.609.583,12.229-2.033.1.583-11.113,1.849,9.878,10.156-.425.413Zm-18.447-3.561.554-.2,4.539,12.529,8.962-14.867.51.307-9.606,15.928Zm-7.873,12.614,1.375-17.411-12.316,8.656-.34-.483,13.345-9.383-1.475,18.669Zm-29.506-16.822,13.225,6.895-.273.524-12.138-6.326,2.666,13.772-.582.111Zm102.411-.74-10.918,8.815-.371-.46,11.868-9.586.117,14.914-.594.005Zm23.395,4.925,11.528-9.463.372.456-10.579,8.685,13.714,2.948-.124.578Zm-51.792,2.363,11.336-8.258-13.2-3.644.159-.571,14.378,3.97-12.331,8.982Zm38.367-13.747.561.184-4.25,13.013,13.15-4.887.206.554-14.3,5.314Zm-97.469-5.637-8.088,11.51-.486-.34,8.751-12.449,5.216,14.751-.559.2Zm41.9,6.774.222-.547,12.1,4.984-5.087-12.987.549-.214,5.595,14.275Zm-16.484,4.663,4.363-10.817,7.091,9.454-.474.354-6.458-8.612-3.975,9.843Zm51.783-15.358.593.009-.258,13.683,11.144-8.517.358.472-12.118,9.26Zm-69.058-2.861.589-.068,1.583,13.661,11.288-9.416.377.455-12.128,10.117Zm102.045.085,14.5,4.724-.184.564-13.332-4.347,4.774,12.826-.554.205Zm-126.351,11.31,11.243-7.812-13.433-4.036.17-.568,14.607,4.392-12.246,8.51Zm74.667-10.395.355-.474,10.954,8.206-.4-14.018.592-.019.439,15.247Zm33.188,1.288.262-.531,12.277,6.057-2.967-13.709.579-.125,3.226,14.907Zm-65.951-.884,7.149-10.862.492.325-6.616,10.058,9.663,1.111-.067.587Zm12.965-5.121.233-.545,12.513,5.333-5.225-12.777.547-.224,5.771,14.11Zm-25.1,3.984.1-15.254,11.615,9.354-.371.46-10.659-8.583-.088,14.027Zm-18.282-14.5,13.365,2.925-.127.578-12.244-2.679,5.525,12.938-.544.234Zm92.327,1.016.521.283-6.386,11.758,12.566-1.4.066.587-13.69,1.528Zm16.778-2.408.442-.389,9.264,10.531,2.42-13.468.58.1-2.635,14.676Zm-53.7-1.5,14.884.927-.039.59-13.659-.849,8.029,11.5-.487.34Zm-74.066,10.258,10.617-8.625.375.457-9.52,7.734,13.847,1.523-.067.59Zm88.051-4.442,13.662-.828-9.376-10.435.438-.4,10.2,11.348-14.891.9Zm-39.391-.858,7.449-11.475-13.958,1.34-.057-.59,15.178-1.457-8.117,12.506Zm68.394-15.294,13.1,7.491-.293.514-12.114-6.922,1.238,13.083-.59.057Zm-92.416,11.805,3.082-16.063-13.73,10.369-.358-.474,14.958-11.294-3.369,17.572Zm39.545-15.19.589.05-.946,11.767,11.963-6.854.3.514-12.936,7.411Zm35.428,2.385.515-.288,5.151,9.312,5.91-12.756.535.25-6.4,13.813Zm-20.816-8.09,13.722,5.84-.231.545-12.593-5.359,3.731,13.52-.571.158Zm54.559,11.673,10.2-10.876.431.4-9.359,9.984,13.977,1.149-.05.59Zm-94.679-14.954.515.29-6.708,12.034,13.429-.389.016.592-14.47.42Zm-33.092-2.2,14.015,5.71-.222.547-12.681-5.163,5.666,13.159-.546.233Zm49.093-1.734-9.886,8.486-.386-.448,10.821-9.291.545,15.831-.592.022Zm58.457,1.026.485-.342,7.924,11.159,3.9-13.47.571.163-4.241,14.65Zm-18.119,8.852,11.944-6.8-12.149-7.222.3-.51,13.02,7.743-12.824,7.3Zm-34.7-11.65,14.912.316-.011.592-13.688-.287,8.494,11.161-.47.358Zm68.521,8.739,11.971-6.635-12.959-5.371.228-.547,14.09,5.84-13.045,7.229Zm-116.062-9.907.29-.517,11.952,6.671-2.272-13.841.587-.1,2.467,15.053Zm18.905,6.4,1.27-16.926,11.908,12.6-.431.406-10.987-11.626-1.17,15.591Zm49.08-17.282.591-.019.553,15.416,9.544-10.147.431.4-10.516,11.183Zm33.5-5.137,13.319,6.72-.267.526-12.221-6.166,2.845,13.737-.578.12Zm-53.228,13.725,13.239-6.765-12.4-3.731.169-.566,13.813,4.154-14.549,7.437Zm-53.158-16.063.594.01-.238,13.69,11.133-8.541.36.472-12.1,9.284Zm130.3,14.52,6.245-12.178-13.748,2.757-.116-.58,14.952-3-6.806,13.268Zm-93.874-1.436,6.057-14,7.029,13.152-.521.281-6.451-12.074-5.573,12.871Zm60.755-12.232.493.325-7.532,11.428,13.969-1.245.053.59-15.19,1.354Zm-25.932-11.7.577.137-3.469,14.575,12.851-6.466.263.529-13.983,7.036Zm-59.375,2.769.512-.295,6.805,11.874,5.183-13.03.552.219-5.638,14.169Zm72.3,11.739,7.12-11.8-10.053-.087,0-.592,11.093.1-7.658,12.687Zm31.845-16.074h.592l-.02,13.685,10.992-8.711.366.465-11.952,9.47Zm-64.741,13.242,3.985-14.82,9.231,11.68-.466.365-8.5-10.755-3.682,13.683Zm-16.315-15.058.57.156-3.226,11.765,13.523-4.02.169.566-14.543,4.326Zm59.226,11.831.017-.592,13.681.321-8.469-11.18.47-.359,9.212,12.159Zm-103.169-6.3,12.292-8.451.335.488-11.282,7.755,13.416,4.1-.171.566Z" transform="translate(3223.355 2879.754)"/><path class="a" d="M-4691.581-1156.161l11.768,9.154-.364.464-10.8-8.4.145,14.022-.593,0Zm28.276,1.3-9.744,10.09-.424-.41,10.594-10.973,1.952,14.782-.585.078Zm-48.809.085.527-.267,6.146,12.232,5.9-12.725.536.248-6.411,13.841Zm-24.785-1.738-10.25,9.574-.406-.434,11.15-10.409,1.183,14.867-.587.047Zm105.184,13.475,1.861-15.141,10.453,10.64-.425.415-9.591-9.763-1.714,13.921Zm-21.389-9.294.368-.462,10.737,8.543.963-17.023.591.033-1.026,18.164Zm-75.225-10.59,12.734,7.758-.309.5-11.685-7.119,1.738,13.916-.588.073Zm-24.84-4.984.535.248-5.749,12.421,13.632-3.307.139.576-14.822,3.6Zm63.5,6.394.269-.526,12.2,6.286-2.378-15.7.585-.089,2.553,16.85Zm-16.516,6.022,5.81-14.68-14.284,6.132-.233-.545,15.594-6.694-6.336,16.006Zm40.692-7.107,13.2-6.934.273.523-12.114,6.364,12.833,5.659-.238.54Zm-78.4-12.064.545-.234,5.4,12.581,6.647-12.35.52.281-7.229,13.428Zm120.168,10.682,7.954-11.138-14.007.724-.031-.592,15.233-.788-8.667,12.138Zm-24.14-6.126.234-.545,12.574,5.4-3.682-13.534.568-.156,4.007,14.718Zm-24.163-10.067.589.057-1.317,13.626,11.769-7.633.325.5-12.8,8.3Zm-26.609.583,12.229-2.033.1.585-11.113,1.847,9.878,10.159-.425.41Zm-18.447-3.559.554-.2,4.539,12.529,8.962-14.869.51.307-9.606,15.93Zm-7.873,12.612,1.375-17.411-12.316,8.658-.34-.483,13.345-9.383-1.475,18.667Zm-29.506-16.822,13.225,6.9-.273.524-12.138-6.328,2.666,13.773-.582.113Zm102.411-.738-10.918,8.812-.371-.46,11.868-9.584.117,14.912-.594,0Zm23.395,4.923,11.528-9.463.372.455-10.579,8.685,13.714,2.951-.124.578Zm-51.792,2.366,11.336-8.258-13.2-3.647.159-.568,14.378,3.97-12.331,8.979Zm38.367-13.749.561.184-4.25,13.013,13.15-4.884.206.554-14.3,5.312Zm-97.469-5.635-8.088,11.511-.486-.34,8.748-12.451,5.22,14.753-.559.2Zm41.9,6.774.222-.547,12.1,4.982-5.087-12.984.549-.217,5.595,14.277Zm-16.484,4.663,4.363-10.817,7.091,9.451-.474.354-6.458-8.612-3.975,9.845Zm51.783-15.36.593.012-.258,13.683,11.144-8.52.358.472-12.118,9.263Zm-69.058-2.861.589-.066,1.583,13.659,11.288-9.416.377.456-12.128,10.116Zm102.045.087,14.5,4.722-.184.564-13.332-4.344,4.774,12.824-.554.208Zm-126.351,11.31,11.243-7.814-13.433-4.036.17-.566,14.607,4.39-12.246,8.51Zm74.667-10.395.355-.474,10.954,8.2-.4-14.018.592-.017.439,15.244Zm33.188,1.285.262-.531,12.277,6.057-2.967-13.706.579-.125,3.226,14.9Zm-65.951-.882,7.149-10.862.492.325-6.616,10.058,9.663,1.111-.067.587Zm12.965-5.121.233-.545,12.513,5.331-5.225-12.777.547-.224,5.771,14.112Zm-25.1,3.984.1-15.254,11.615,9.352-.371.462-10.659-8.583-.088,14.025Zm-18.282-14.5,13.365,2.927-.127.578-12.244-2.679,5.525,12.937-.544.234Zm92.327,1.019.521.283-6.386,11.756,12.566-1.4.066.59-13.69,1.526Zm16.778-2.408.442-.391,9.264,10.531,2.42-13.468.58.106-2.635,14.676Zm-53.7-1.5,14.884.927-.039.592-13.659-.851,8.029,11.5-.487.338Zm-74.066,10.258,10.617-8.626.375.46-9.52,7.734,13.847,1.524-.067.587Zm88.051-4.441,13.662-.828-9.376-10.435.438-.394,10.2,11.345-14.891.9Zm-39.391-.859,7.449-11.475-13.958,1.34-.057-.59,15.178-1.458-8.117,12.506Zm68.394-15.291,13.1,7.489-.293.516-12.114-6.925,1.238,13.086-.59.054Zm-92.416,11.8,3.082-16.062-13.73,10.369-.358-.472,14.958-11.3-3.369,17.573Zm39.545-15.188.589.047-.946,11.767,11.963-6.854.3.514-12.936,7.413Zm35.428,2.383.515-.288,5.151,9.312,5.91-12.753.535.248-6.4,13.812Zm-20.816-8.088,13.722,5.837-.231.545-12.593-5.357,3.731,13.52-.571.158Zm54.559,11.673,10.2-10.878.431.406-9.359,9.984,13.977,1.146-.05.589Zm-94.679-14.954.515.288-6.708,12.034,13.429-.389.016.592-14.47.42Zm-33.092-2.2,14.015,5.713-.222.547-12.681-5.166,5.666,13.159-.546.234Zm49.093-1.731-9.886,8.484-.386-.448,10.821-9.286.545,15.827-.592.021Zm58.457,1.026.485-.344,7.924,11.159,3.9-13.47.571.165-4.241,14.647Zm-18.119,8.85,11.944-6.793-12.149-7.225.3-.507,13.02,7.744-12.824,7.3Zm-34.7-11.647,14.912.316-.011.59-13.688-.287,8.494,11.163-.47.359Zm68.521,8.736,11.971-6.632-12.959-5.373.228-.547,14.09,5.843-13.045,7.227Zm-116.062-9.906.29-.517,11.952,6.67-2.272-13.841.587-.1,2.467,15.053Zm18.905,6.4,1.27-16.926,11.908,12.6-.431.406-10.987-11.626-1.17,15.591Zm49.08-17.28.591-.021.553,15.419,9.544-10.149.431.406-10.516,11.182Zm33.5-5.14,13.319,6.72-.267.528-12.221-6.165,2.845,13.737-.578.118Zm-53.228,13.728,13.239-6.767-12.4-3.731.169-.566,13.813,4.156-14.549,7.434Zm-53.158-16.063.594.01-.238,13.688,11.133-8.538.36.469-12.1,9.284Zm130.3,14.52,6.245-12.178-13.748,2.755-.116-.58,14.952-3-6.806,13.268Zm-93.874-1.439,6.057-14,7.029,13.154-.521.281-6.451-12.074-5.573,12.871Zm60.755-12.23.493.325-7.532,11.426,13.969-1.245.053.59-15.19,1.356Zm-25.932-11.7.577.137-3.469,14.576,12.851-6.465.263.526-13.983,7.038Zm-59.375,2.769.512-.295,6.805,11.876,5.183-13.032.552.219-5.638,14.171Zm72.294,11.741,7.123-11.8-10.053-.087,0-.592,11.093.1-7.658,12.69Zm31.847-16.074h.592l-.02,13.683,10.992-8.711.366.465-11.952,9.473Zm-64.741,13.24,3.985-14.82,9.231,11.68-.466.368-8.5-10.758-3.682,13.685Zm-16.315-15.058.57.156-3.226,11.767,13.523-4.021.169.566-14.543,4.326Zm59.226,11.831.017-.59,13.681.321-8.469-11.183.47-.356,9.212,12.159Zm-103.169-6.3,12.292-8.449.335.486-11.282,7.755,13.416,4.1-.171.566Zm72.42-16.261,11.768,9.154-.364.467-10.8-8.4.145,14.025-.593,0Zm28.276,1.307-9.744,10.09-.424-.41,10.594-10.973,1.952,14.782-.585.075Zm-48.809.085.527-.266,6.146,12.232,5.9-12.727.536.25-6.411,13.841Zm-24.785-1.738-10.25,9.574-.406-.434,11.15-10.409,1.183,14.867-.587.045Zm105.184,13.473,1.861-15.138,10.453,10.64-.425.413-9.591-9.763-1.714,13.921Zm-21.389-9.291.368-.462,10.737,8.543.963-17.025.591.033-1.026,18.167Zm-75.225-10.59,12.734,7.758-.309.5-11.685-7.121,1.738,13.918-.588.073Zm-24.84-4.984.535.248-5.749,12.421,13.632-3.307.139.576-14.822,3.6Zm63.5,6.394.269-.526,12.2,6.286-2.378-15.7.585-.089,2.553,16.848Zm-16.516,6.022,5.81-14.681-14.284,6.13-.233-.543,15.594-6.693-6.336,16Zm40.692-7.109,13.2-6.935.273.524-12.114,6.366,12.833,5.656-.238.542Zm-78.4-12.062.545-.234,5.4,12.579,6.647-12.35.52.281-7.229,13.43Zm120.168,10.68,7.954-11.135-14.007.724-.031-.592,15.233-.788-8.667,12.138Zm-24.14-6.125.234-.543,12.574,5.4-3.682-13.531.568-.156,4.007,14.716Zm-24.163-10.065.589.057-1.317,13.624,11.769-7.633.325.5-12.8,8.3Zm-26.609.583,12.229-2.033.1.583-11.113,1.849,9.878,10.156-.425.413Zm-18.447-3.561.554-.2,4.539,12.529,8.962-14.867.51.307-9.606,15.928Zm-7.873,12.614,1.375-17.411-12.316,8.656-.34-.483,13.345-9.383-1.475,18.669Zm-29.506-16.822,13.225,6.895-.273.524-12.138-6.326,2.666,13.772-.582.111Zm102.411-.74-10.918,8.815-.371-.46,11.868-9.586.117,14.914-.594.005Zm23.395,4.925,11.528-9.463.372.456-10.579,8.685,13.714,2.948-.124.578Zm-51.792,2.363,11.336-8.258-13.2-3.644.159-.571,14.378,3.97-12.331,8.982Zm38.367-13.747.561.184-4.25,13.013,13.15-4.887.206.554-14.3,5.314Zm-97.469-5.637-8.088,11.51-.486-.34,8.751-12.449,5.216,14.751-.559.2Zm41.9,6.774.222-.547,12.1,4.984-5.087-12.987.549-.214,5.595,14.275Zm-16.484,4.663,4.363-10.817,7.091,9.454-.474.354-6.458-8.612-3.975,9.843Zm51.783-15.358.593.009-.258,13.683,11.144-8.517.358.472-12.118,9.26Zm-69.058-2.861.589-.068,1.583,13.661,11.288-9.416.377.455-12.128,10.117Zm102.045.085,14.5,4.724-.184.564-13.332-4.347,4.774,12.826-.554.205Zm-126.351,11.31,11.243-7.812-13.433-4.036.17-.568,14.607,4.392-12.246,8.51Zm74.667-10.395.355-.474,10.954,8.206-.4-14.018.592-.019.439,15.247Zm33.188,1.288.262-.531,12.277,6.057-2.967-13.709.579-.125,3.226,14.907Zm-65.951-.884,7.149-10.862.492.325-6.616,10.058,9.663,1.111-.067.587Zm12.965-5.121.233-.545,12.513,5.333-5.225-12.777.547-.224,5.771,14.11Zm-25.1,3.984.1-15.254,11.615,9.354-.371.46-10.659-8.583-.088,14.027Zm-18.282-14.5,13.365,2.925-.127.578-12.244-2.679,5.525,12.938-.544.234Zm92.327,1.016.521.283-6.386,11.758,12.566-1.4.066.587-13.69,1.528Zm16.778-2.408.442-.389,9.264,10.531,2.42-13.468.58.1-2.635,14.676Zm-53.7-1.5,14.884.927-.039.59-13.659-.849,8.029,11.5-.487.34Zm-74.066,10.258,10.617-8.625.375.457-9.52,7.734,13.847,1.523-.067.59Zm88.051-4.442,13.662-.828-9.376-10.435.438-.4,10.2,11.348-14.891.9Zm-39.391-.858,7.449-11.475-13.958,1.34-.057-.59,15.178-1.457-8.117,12.506Zm68.394-15.294,13.1,7.491-.293.514-12.114-6.922,1.238,13.083-.59.057Zm-92.416,11.805,3.082-16.063-13.73,10.369-.358-.474,14.958-11.294-3.369,17.572Zm39.545-15.19.589.05-.946,11.767,11.963-6.854.3.514-12.936,7.411Zm35.428,2.385.515-.288,5.151,9.312,5.91-12.756.535.25-6.4,13.813Zm-20.816-8.09,13.722,5.84-.231.545-12.593-5.359,3.731,13.52-.571.158Zm54.559,11.673,10.2-10.876.431.4-9.359,9.984,13.977,1.149-.05.59Zm-94.679-14.954.515.29-6.708,12.034,13.429-.389.016.592-14.47.42Zm-33.092-2.2,14.015,5.71-.222.547-12.681-5.163,5.666,13.159-.546.233Zm49.093-1.734-9.886,8.486-.386-.448,10.821-9.291.545,15.831-.592.022Zm58.457,1.026.485-.342,7.924,11.159,3.9-13.47.571.163-4.241,14.65Zm-18.119,8.852,11.944-6.8-12.149-7.222.3-.51,13.02,7.743-12.824,7.3Zm-34.7-11.65,14.912.316-.011.592-13.688-.287,8.494,11.161-.47.358Zm68.521,8.739,11.971-6.635-12.959-5.371.228-.547,14.09,5.84-13.045,7.229Zm-116.062-9.907.29-.517,11.952,6.671-2.272-13.841.587-.1,2.467,15.053Zm18.905,6.4,1.27-16.926,11.908,12.6-.431.406-10.987-11.626-1.17,15.591Zm49.08-17.282.591-.019.553,15.416,9.544-10.147.431.4-10.516,11.183Zm33.5-5.137,13.319,6.72-.267.526-12.221-6.166,2.845,13.737-.578.12Zm-53.228,13.725,13.239-6.765-12.4-3.731.169-.566,13.813,4.154-14.549,7.437Zm-53.158-16.063.594.01-.238,13.69,11.133-8.541.36.472-12.1,9.284Zm130.3,14.52,6.245-12.178-13.748,2.757-.116-.58,14.952-3-6.806,13.268Zm-93.874-1.436,6.057-14,7.029,13.152-.521.281-6.451-12.074-5.573,12.871Zm60.755-12.232.493.325-7.532,11.428,13.969-1.245.053.59-15.19,1.354Zm-25.932-11.7.577.137-3.469,14.575,12.851-6.466.263.529-13.983,7.036Zm-59.375,2.769.512-.295,6.805,11.874,5.183-13.03.552.219-5.638,14.169Zm72.3,11.739,7.12-11.8-10.053-.087,0-.592,11.093.1-7.658,12.687Zm31.845-16.074h.592l-.02,13.685,10.992-8.711.366.465-11.952,9.47Zm-64.741,13.242,3.985-14.82,9.231,11.68-.466.365-8.5-10.755-3.682,13.683Zm-16.315-15.058.57.156-3.226,11.765,13.523-4.02.169.566-14.543,4.326Zm59.226,11.831.017-.592,13.681.321-8.469-11.18.47-.359,9.212,12.159Zm-103.169-6.3,12.292-8.451.335.488-11.282,7.755,13.416,4.1-.171.566Z" transform="translate(2940 2879.754)"/></g></g></g></svg>