<svg xmlns="http://www.w3.org/2000/svg" width="320.527" height="218.945" viewBox="0 0 320.527 218.945"><defs><style>.a{fill:#b75742;}.b{fill:#86b1f2;}.c{fill:#f47257;}.d{fill:#3c8f7c;}.e{fill:#96d9c9;}.f{fill:#50bfa5;}.g{fill:#f7cc7f;}.h{fill:#fae0b2;}.i{fill:#fff;}.j{fill:#f48c7f;}.k{fill:#466eb6;}.l{fill:#f7a491;}.m{fill:#f8a492;}.n{fill:#f47458;}.o{fill:#184655;}.p{fill:#355389;}.q{fill:#fff0d7;}</style></defs><g transform="translate(-365.609 -283.729)"><g transform="translate(365.608 283.729)"><g transform="translate(242.659 174.562)"><path class="a" d="M1939.384,1431.3a38.364,38.364,0,0,1-7.577-8.293l16.6-10.486s-.023-.039-.071-.111a21.514,21.514,0,0,0,4.161,4.249,25.922,25.922,0,0,0,12.192,5.314c5.806.924,11.8-1.011,15.8-2.8a42.935,42.935,0,0,0,7.482-4.245l14.719,2.845-2.767,12.733a61.179,61.179,0,0,1-23.366,10.456A44.376,44.376,0,0,1,1939.384,1431.3Z" transform="translate(-1931.807 -1412.408)"/></g><path class="b" d="M2117.148,566.7l3.9-2.02,3.872,2.065a.6.6,0,0,0,.879-.631l-.717-4.329,3.16-3.045a.6.6,0,0,0-.328-1.03l-4.339-.656-1.919-3.946a.6.6,0,0,0-1.082-.006l-1.965,3.924-4.346.606a.6.6,0,0,0-.341,1.027l3.125,3.081-.767,4.321A.6.6,0,0,0,2117.148,566.7Z" transform="translate(-1842.891 -511.39)"/><rect class="c" width="191.696" height="20.066" transform="translate(74.39 134.578)"/><g transform="translate(76.713 101.386)"><path class="d" d="M999.121,1044.32a370.18,370.18,0,0,0-138.385-41.465q2.679-31.375,5.358-62.749a428.005,428.005,0,0,1,160,47.943Z" transform="translate(-860.736 -940.106)"/><path class="e" d="M888.163,1017.053l3.651-39.134c5.066.519,9.6-2.75,10.156-7.436a424.885,424.885,0,0,1,134.154,40.2c-1.886,4.286.327,9.578,4.891,11.944l-16.562,35.266a7.964,7.964,0,0,0-11.055,3.906,373.111,373.111,0,0,0-117.808-35.3A8.442,8.442,0,0,0,888.163,1017.053Z" transform="translate(-883.914 -965.777)"/><g transform="translate(21.208 24.402)"><path class="f" d="M1295.553,1126.631a21.721,21.721,0,0,1-27.057,13.511A23.178,23.178,0,0,1,1252.7,1113.4c2.5-11.63,14.861-18.6,27.394-14.723S1299.444,1115.431,1295.553,1126.631Z" transform="translate(-1212.76 -1097.604)"/><path class="d" d="M1330.846,1170.856q.467-1.879.934-3.758a20.346,20.346,0,0,1-4.543-2.127,2.425,2.425,0,0,1-.875-3.149l.069-.132a2.33,2.33,0,0,1,3.361-.82,14.953,14.953,0,0,0,4.164,1.928c2.276.637,4.056.226,4.469-1.352.389-1.5-.648-2.826-3.4-4.653-3.982-2.63-6.524-5.375-5.646-9.234.793-3.5,4.019-5.587,8.719-5.176q.461-1.88.922-3.761,2.073.575,4.141,1.171-.443,1.737-.887,3.474a19.144,19.144,0,0,1,3.679,1.639,2.413,2.413,0,0,1,.959,3.273h0a2.447,2.447,0,0,1-3.419.724,13.674,13.674,0,0,0-3.51-1.547c-2.7-.766-3.843.11-4.112,1.217-.321,1.309.928,2.527,4.081,4.791,4.439,3.072,5.767,5.852,4.792,9.379-.972,3.5-4.285,5.691-9.02,5.171q-.52,2.012-1.041,4.024Q1332.766,1171.387,1330.846,1170.856Z" transform="translate(-1275.204 -1132.268)"/><path class="f" d="M1030.961,1130.025q-16.527-3.814-33.344-6.205.389-3.017.777-6.033,17.039,2.421,33.811,6.292Q1031.584,1127.051,1030.961,1130.025Z" transform="translate(-997.617 -1114.659)"/><path class="f" d="M1596.77,1287.875q-15.38-7.521-31.27-13.686l2.01-5.711q16.1,6.247,31.708,13.878Z" transform="translate(-1477.515 -1242.004)"/></g></g><g transform="translate(79.236 71.915)"><path class="d" d="M1033.085,811.785a334.278,334.278,0,0,0-125.174,55.036l-30.886-53.295a386.5,386.5,0,0,1,144.729-63.634Q1027.419,780.839,1033.085,811.785Z" transform="translate(-877.025 -749.893)"/><path class="e" d="M951.687,887.435,932.653,854c4.028-2.809,5.563-8.294,3.368-12.37a383.59,383.59,0,0,1,121.347-53.354,8.476,8.476,0,0,0,10.242,6.386l7.356,38.569c-4.309.94-6.979,5.532-5.992,10.136A336.847,336.847,0,0,0,962.413,890.22,7.278,7.278,0,0,0,951.687,887.435Z" transform="translate(-924.034 -782.33)"/><g transform="translate(27.559 27.643)"><path class="f" d="M1316.8,952.842c3.354,11.4-2.342,23.584-12.471,27.948-10.139,4.338-21.882-.36-26.5-11.215-4.614-10.835.643-24.238,12.046-29.126S1313.45,941.463,1316.8,952.842Z" transform="translate(-1241.874 -937.103)"/><path class="d" d="M1363.983,1012.989l-1.4-3.581a17.691,17.691,0,0,1-4.534,1.2,2.2,2.2,0,0,1-2.394-1.947l-.022-.149a2.409,2.409,0,0,1,2.026-2.79,13.021,13.021,0,0,0,4.144-1.115c2.034-.941,3.12-2.4,2.549-3.916-.544-1.437-2.047-1.835-5.095-1.536-4.4.441-7.8-.125-9.3-3.751-1.355-3.284-.135-7,3.562-9.66q-.7-1.788-1.408-3.576,1.849-.862,3.707-1.7l1.275,3.326a16.7,16.7,0,0,1,3.625-1.037,2.191,2.191,0,0,1,2.525,1.992h0a2.519,2.519,0,0,1-2.122,2.75,11.943,11.943,0,0,0-3.45,1c-2.417,1.106-2.775,2.531-2.36,3.583.49,1.245,2.088,1.419,5.673,1.214,4.982-.381,7.507.985,8.745,4.409,1.224,3.4,0,7.25-3.787,9.847q.734,1.93,1.466,3.861Q1365.7,1012.19,1363.983,1012.989Z" transform="translate(-1303.794 -972.383)"/><path class="f" d="M1085.732,1132.655q-14.317,7.478-28.059,16.271l-2.776-5.291q13.922-8.911,28.452-16.5Z" transform="translate(-1054.897 -1096.331)"/><path class="f" d="M1596,934.254q-15.529,3.8-30.682,9l-1.688-5.818q15.352-5.271,31.111-9.13Z" transform="translate(-1484.809 -928.31)"/></g></g><g transform="translate(87.302 109.178)"><path class="d" d="M1084.191,1054.014a339.188,339.188,0,0,0-136.907,20.066l-18.2-59.77a392.183,392.183,0,0,1,158.3-23.2Q1085.783,1022.562,1084.191,1054.014Z" transform="translate(-929.08 -990.396)"/><path class="e" d="M983.224,1079.745l-11.081-37.406c4.647-1.65,7.446-6.551,6.22-11.078a389.228,389.228,0,0,1,132.722-19.452,8.948,8.948,0,0,0,8.666,8.9q-.846,19.639-1.692,39.278a8.117,8.117,0,0,0-8.3,8.22,341.81,341.81,0,0,0-116.55,17.082A7.693,7.693,0,0,0,983.224,1079.745Z" transform="translate(-965.471 -1008.361)"/><g transform="translate(24.684 12.146)"><path class="f" d="M1381.553,1088.14c.67,11.921-7.815,22.2-18.872,23.741-11.061,1.509-21.608-6.152-23.659-17.883-2.05-11.71,6.283-23.286,18.726-24.993A20.652,20.652,0,0,1,1381.553,1088.14Z" transform="translate(-1299.93 -1068.792)"/><path class="d" d="M1429.6,1140.285q-.275-1.919-.551-3.836a18.285,18.285,0,0,1-4.774-.043,2.314,2.314,0,0,1-1.919-2.519c0-.05.008-.1.013-.15a2.341,2.341,0,0,1,2.658-2.163,13.45,13.45,0,0,0,4.368.02c2.236-.372,3.652-1.5,3.438-3.115-.2-1.535-1.6-2.318-4.693-2.837-4.464-.74-7.7-2.189-8.341-6.1-.579-3.537,1.5-6.809,5.782-8.4q-.281-1.917-.562-3.834,2.034-.344,4.072-.665.245,1.779.489,3.557a17.2,17.2,0,0,1,3.835-.042,2.3,2.3,0,0,1,2.04,2.6h0a2.45,2.45,0,0,1-2.744,2.1,12.311,12.311,0,0,0-3.654.055c-2.654.43-3.341,1.714-3.174,2.842.2,1.335,1.739,1.927,5.341,2.68,5.027.953,7.212,2.944,7.642,6.586.422,3.613-1.692,7.015-6.048,8.525q.277,2.063.554,4.125Q1431.483,1139.966,1429.6,1140.285Z" transform="translate(-1368.373 -1100.779)"/><path class="f" d="M1121.526,1214.2q-15.935,3.439-31.606,8.3l-1.52-5.857q15.877-4.931,32.048-8.421Z" transform="translate(-1088.401 -1186.625)"/><path class="f" d="M1682.939,1160.635q-16.28-.44-32.513.577-.159-3.039-.318-6.078,16.447-1.029,32.968-.585Q1683.007,1157.592,1682.939,1160.635Z" transform="translate(-1563.08 -1141.148)"/></g></g><rect class="c" width="191.696" height="84.366" transform="translate(74.39 134.578)"/><path class="a" d="M1769.968,1559.848h-47.435a3.9,3.9,0,0,0-3.808,3.988h0a3.9,3.9,0,0,0,3.808,3.988h-6.151a3.9,3.9,0,0,0-3.808,3.988h0a3.9,3.9,0,0,0,3.808,3.987h1.066a3.9,3.9,0,0,0-3.808,3.988,4.131,4.131,0,0,0,.32,1.6h56.008Z" transform="translate(-1503.882 -1362.442)"/><rect class="a" width="174.504" height="6.551" transform="translate(81.454 138.732)"/><g transform="translate(72.28 165.502)"><rect class="d" width="91.631" height="52.396" rx="3"/><rect class="g" width="22.565" height="13.119" transform="translate(5.891 10.42)"/><rect class="g" width="40.014" height="2.449" transform="translate(45.815 7.096)"/><rect class="g" width="73.641" height="3.025" transform="translate(9.215 35.083)"/><rect class="g" width="73.641" height="3.025" transform="translate(9.215 42.207)"/></g><rect class="a" width="81.365" height="2.175" transform="translate(83.671 156.118)"/><g transform="translate(193.488 105.829)"><circle class="h" cx="18.121" cy="18.121" r="18.121"/><path class="g" d="M1660.9,994.061a15.206,15.206,0,1,1-21.181-3.711A15.206,15.206,0,0,1,1660.9,994.061Z" transform="translate(-1630.334 -984.676)"/></g><g transform="translate(203.078 156.318)"><circle class="h" cx="18.121" cy="18.121" r="18.121" transform="translate(0 25.626) rotate(-45)"/><path class="g" d="M1771.24,1368.377a15.206,15.206,0,1,1-21.181-3.711A15.206,15.206,0,0,1,1771.24,1368.377Z" transform="translate(-1733.168 -1351.486)"/><g transform="translate(19.199 14.556)"><path class="i" d="M1808.437,1410.369l-.663-2.45a12.316,12.316,0,0,1-3.237.285,1.545,1.545,0,0,1-1.465-1.523v-.1a1.542,1.542,0,0,1,1.637-1.562,9.012,9.012,0,0,0,2.928-.275c1.47-.4,2.323-1.237,2.044-2.269-.265-.98-1.258-1.376-3.341-1.5-3.011-.182-5.243-.963-5.92-3.465-.614-2.27.5-4.482,3.117-5.77l-.663-2.45,2.528-.684.614,2.27a11.392,11.392,0,0,1,2.446-.3A1.542,1.542,0,0,1,1810,1392.1h0a1.544,1.544,0,0,1-1.576,1.564,8.21,8.21,0,0,0-2.353.292c-1.677.454-2.023,1.322-1.827,2.044.23.851,1.279,1.149,3.7,1.381,3.362.253,4.984,1.337,5.612,3.658.621,2.3-.474,4.7-3.3,6.013l.711,2.631Z" transform="translate(-1800.255 -1388.603)"/></g></g><g transform="translate(173.41 139.182)"><circle class="h" cx="18.121" cy="18.121" r="18.121" transform="matrix(1, -0.017, 0.017, 1, 1.657, 2.26)"/><circle class="g" cx="15.206" cy="15.206" r="15.206" transform="translate(0 12.373) rotate(-24.006)"/></g><rect class="j" width="82.071" height="43.984" transform="translate(173.888 169.708)"/><path class="a" d="M1718.725,1563.835h0a3.9,3.9,0,0,0,3.808,3.988h-6.151a3.9,3.9,0,0,0-3.808,3.988h0a3.9,3.9,0,0,0,3.808,3.987h1.066a3.651,3.651,0,0,0-1.531.336h43.923v-16.286h-37.307A3.9,3.9,0,0,0,1718.725,1563.835Z" transform="translate(-1503.882 -1362.442)"/><g transform="translate(213.027 197.585)"><path class="g" d="M1799.524,1675.449h-48.985a3.559,3.559,0,0,1-3.559-3.559h0a3.559,3.559,0,0,1,3.559-3.559h48.985a3.559,3.559,0,0,1,3.559,3.559h0A3.559,3.559,0,0,1,1799.524,1675.449Z" transform="translate(-1745.984 -1654.096)"/><path class="h" d="M1793.1,1629.51h-48.985a3.559,3.559,0,0,1-3.559-3.559h0a3.559,3.559,0,0,1,3.559-3.558H1793.1a3.559,3.559,0,0,1,3.559,3.558h0A3.559,3.559,0,0,1,1793.1,1629.51Z" transform="translate(-1740.553 -1615.275)"/><path class="g" d="M1830.2,1583.571h-48.985a3.559,3.559,0,0,1-3.559-3.559h0a3.559,3.559,0,0,1,3.559-3.559H1830.2a3.559,3.559,0,0,1,3.559,3.559h0A3.559,3.559,0,0,1,1830.2,1583.571Z" transform="translate(-1771.904 -1576.453)"/></g><path class="k" d="M1656.409,626.811l.623,4.216-6.673,1.752.151,6.277-4.78,2.128,1.077,2.419,6.393-2.846-.143-5.949,6.942-1.823-.938-6.345Z" transform="translate(-1447.394 -573.822)"/><path class="f" d="M1104.528,497.421l-4.046.411-1.38-6.437-5.99-.129-1.82-4.649-2.353.922,2.435,6.218,5.677.122,1.435,6.7,6.089-.618Z" transform="translate(-976.869 -455.492)"/><g transform="translate(169.628 30.02)"><path class="h" d="M1465.234,486.584l4.329,1.428s6.864-2.224,7.54-3.623.867-4.793,1.843-4.886a2.957,2.957,0,0,1,3.314,2.548c.326,1.686-2.143,6.56-1.757,7.079a23.678,23.678,0,0,0,4.517,1.839,3.373,3.373,0,0,1,2.233,2.721v0a1.858,1.858,0,0,1-1.16,2l-1.245.481.4,1.286a1.857,1.857,0,0,1-1.174,2.3l-.964.323.308.783a1.856,1.856,0,0,1-1.2,2.455l-.842.245.035.225a1.855,1.855,0,0,1-1.35,2.075l-.836.219-11.529-3.8a8.217,8.217,0,0,1-2.922-1.7l-3.829-2.021a.951.951,0,0,1-.446-1.156l3.55-10.222A.949.949,0,0,1,1465.234,486.584Z" transform="translate(-1460.443 -479.489)"/></g><path class="g" d="M997.741,739.143l.917-4.543,4.262-1.82a.637.637,0,0,0,.063-1.141l-4.037-2.276-.414-4.616a.637.637,0,0,0-1.065-.412l-3.412,3.137-4.518-1.032a.637.637,0,0,0-.721.886l1.929,4.214-2.378,3.978a.637.637,0,0,0,.62.96l4.6-.532,3.048,3.491A.637.637,0,0,0,997.741,739.143Z" transform="translate(-891.801 -656.237)"/><g transform="translate(0 0)"><g transform="translate(0 77.362)"><path class="l" d="M653.976,1541.029s-5.681,4.1-6.575,5.317c-1.288,1.76,9.624,5.051,8.433,2.991-.274-.474-1.059-2.068-1.094-2.225-.183-.839,2.132-3.1,2.132-3.1Z" transform="translate(-603.652 -1423.9)"/><path class="g" d="M654.228,1568.926l-3.857-5.451a10.512,10.512,0,0,1-4.881-3.34,9.037,9.037,0,0,0-3.588,2.686,62.9,62.9,0,0,0,6.561,5.915,18.225,18.225,0,0,0,5.618,3.19C657.341,1573.027,654.228,1568.926,654.228,1568.926Z" transform="translate(-599.094 -1440.046)"/><path class="m" d="M368.461,1056.1s.7.617.945.805c.29.221,1.206.816,1.206.816s3.315,1.886,3.428,1.637a1.641,1.641,0,0,0-.056-1.152c-.164-.188-.641-.382-.805-.571a.609.609,0,0,1-.009-.778c.211-.21,1.344.409,1.344.409a4.225,4.225,0,0,1,1.3,1.126,5.466,5.466,0,0,1,1.1,2.527,51.607,51.607,0,0,0,4.861,2.43s13.9,5.779,14.652,6.095h.009a4.035,4.035,0,0,1-.42,1.806c-.332,1.986-.924,2.118-1.374,4.033-2.132-1.079-16.894-9.211-18.394-10.058,0,0-2.248-.384-3.653-.671a12.539,12.539,0,0,1-3.014-1.317,13.226,13.226,0,0,1-2.7-1.634c-1.191-.923.347-.575.347-.575s2.5,1.327,2.568,1.116c.05-.162-1.357-.808-2.686-1.817-.341-.259-.678-.516-.984-.755-.806-.626-.665-1.283.279-.758a10.5,10.5,0,0,1,1.239.789,8.7,8.7,0,0,0,1.2.673,11.37,11.37,0,0,0,1.244.686c0-.05.2-.066-.156-.352-.426-.344-1.487-.881-2.076-1.433-.333-.313-1.07-.928-1.07-.928a9.216,9.216,0,0,1-.9-1.2c.25-.405,1.108.192,1.507.675a7.084,7.084,0,0,1,1.165.85s1.824,1.018,1.964.769a24.055,24.055,0,0,0-1.9-1.757c-.85-.833-1.576-1.807-1.441-1.994C367.422,1055.271,368.461,1056.1,368.461,1056.1Z" transform="translate(-365.608 -1013.61)"/><path class="a" d="M634.339,1263.951l.9,4.444,22.588,20.545L641.657,1305.3l4.366,4.462s23.879-17.535,24.74-19.833c1.325-3.538-17.118-26.973-17.118-26.973Z" transform="translate(-592.703 -1188.914)"/><path class="l" d="M502.864,1616.2s-4.557,4.966-5.451,6.188c-1.289,1.76,8.334,4.358,7.143,2.3-.274-.474-1.059-2.069-1.094-2.225-.183-.839,2.132-3.1,2.132-3.1Z" transform="translate(-476.891 -1487.426)"/><path class="g" d="M502.667,1657.444l-6.272-2.292a9.825,9.825,0,0,1-5.985.195,8.3,8.3,0,0,0-1.355,4.08s11.888,1.516,15.2.569S502.667,1657.444,502.667,1657.444Z" transform="translate(-469.929 -1520.342)"/><path class="n" d="M535.546,1273.068l1.014,28.035-20.042,24.574,5.422,2.969s22.171-19.029,24.605-24.33c1.51-3.288,6.591-33.006,6.591-33.006Z" transform="translate(-493.137 -1195.971)"/><path class="h" d="M672.982,1045.087c-1.837-4.146-1.625-33.87-8.775-40.833-2.516.425-4.31.663-4.729.773-.373,3.062-.783,14.3-1.036,24.6-.168,6.86.005,14.055-.84,17.848C657.078,1049.822,674.66,1048.874,672.982,1045.087Z" transform="translate(-612.352 -970.291)"/><path class="k" d="M470.326,1010.726c-2.007.458-3.485.779-6.116,4.665-2.518,3.72-8.111,12.548-8.111,12.548l-14.729-6.542-.689,7.461s16.663,8.662,19.014,7.881,8.961-10.443,9.45-11.095c.115-.153-.555,10.319-.555,11.993s-3.194,16.242-3.194,16.242,8.106,1.995,9.688-1.629c4.85-11.111,1.127-43.067,1.127-43.067S471.77,1010.4,470.326,1010.726Z" transform="translate(-429.05 -974.455)"/><path class="l" d="M820.377,789.5a4.413,4.413,0,0,1-.991-2.56l-.276-1.059c.251-.1,5.163-.8,6.645-.84a2.7,2.7,0,0,1,.17,1.117c-.22,1.211-1.766,9.072-1.766,9.072l-4.23.084S820.848,790.657,820.377,789.5Z" transform="translate(-748.847 -785.045)"/><path class="k" d="M710.992,868.368s2.9,8.259,5.291,7.069,15.807-14.87,15.94-15.531,1.062-17.453,1.062-17.453l-5.308-1.058-3.052,13.75s-9.819,9.387-11.81,10.313A3.689,3.689,0,0,0,710.992,868.368Z" transform="translate(-657.48 -832.665)"/><path class="k" d="M709.788,1040.737a9,9,0,0,0,3.27-.544s-3.06-17.246-4.839-34.347c-.7-6.755-1.355-9.525-4.142-9.036-.806.141-2.989.973-3.782,1.106,7,19.816,7.028,35.069,8.02,39.492C708.813,1039.628,709.246,1040.751,709.788,1040.737Z" transform="translate(-648.441 -963.954)"/><path class="l" d="M667.21,960.333l.734,2.994s.167,2.606-1.043,2.841c-1.459.282-3.627-1.9-3.627-1.9l-1.256-8.443Z" transform="translate(-616.094 -929.364)"/><path class="l" d="M667.21,960.333l.734,2.994s.167,2.606-1.043,2.841c-1.459.282-3.627-1.9-3.627-1.9l-1.256-8.443Z" transform="translate(-616.094 -929.364)"/><path class="n" d="M662.1,956.075l5.179,4.471.548,2.237C665.846,962.306,663.023,960.127,662.1,956.075Z" transform="translate(-616.161 -929.576)"/><path class="l" d="M665.057,905.935a3.058,3.058,0,0,1,2.82,2.115,26.567,26.567,0,0,1,1.13,4.335c.548,3.247-1.3,6.219-2.91,6.456s-5.441-.829-6.289-5.428c-.363-1.972-.841-4.558.78-5.916A7.289,7.289,0,0,1,665.057,905.935Z" transform="translate(-613.924 -887.205)"/><path class="o" d="M632.79,893.959s-5.671-5.054-5.919-9,3.4-6.064,6.517-6.174a21.171,21.171,0,0,1,3.816.2c3.124.394,5.149,1.779,4.436,4.338-.957,3.436-7.441.537-8.766,1.6-1.094.88.68,3-.383,3.805-1,.759-.49.5-.159,1.945A25.5,25.5,0,0,1,632.79,893.959Z" transform="translate(-586.382 -864.246)"/><path class="l" d="M650.856,937.056c.141.946.719,1.644,1.292,1.56s.924-.92.783-1.866-.719-1.644-1.292-1.56S650.715,936.11,650.856,937.056Z" transform="translate(-606.635 -911.922)"/><path class="n" d="M829.142,787.781a6.813,6.813,0,0,1,1.832,1.732s2.392-1.533,2.308-2.019c-.111-.644-2.556.551-2.556.551Z" transform="translate(-757.324 -786.953)"/></g><g transform="translate(6.456)"><path class="e" d="M410.966,332.164l64.579,33.252c3.475,1.789,7.869.178,9.813-3.6l16.492-32.029c1.944-3.776.7-8.288-2.771-10.078L434.5,286.46c-3.475-1.789-7.869-.178-9.813,3.6l-16.492,32.029C406.25,325.863,407.491,330.375,410.966,332.164Z" transform="translate(-407.276 -285.729)"/><rect class="p" width="10.929" height="86.792" transform="translate(1.29 35.638) rotate(-62.756)"/></g><rect class="g" width="19.135" height="10.614" transform="translate(32.408 5.304) rotate(27.293)"/><path class="l" d="M820.631,776.33c-.112-.3-.334-.728-.225-.894.689-1.052-.054-2.2-.555-1.3a5.623,5.623,0,0,0-.757,2.258c.031.431.468,2.073.468,2.073A1.525,1.525,0,0,0,820.631,776.33Z" transform="translate(-748.832 -698.191)"/></g><g transform="translate(219.864 15.823)"><g transform="translate(0)"><g transform="translate(21.217 37.125)"><path class="l" d="M2018.794,1504.215a40.723,40.723,0,0,0-.075,6.559c.173.861,1.135,2.635.693,3.446a2.2,2.2,0,0,1-.946,1.013l-11.435.181c-.623.01-.211-.384.291-.747a23.207,23.207,0,0,1,4.112-2.237c.171-.081.795-.471,1.019-.607a7.859,7.859,0,0,0,1.636-1.421c.821-.9.893-5.258.893-5.258Z" transform="translate(-1993.534 -1368.377)"/><path class="p" d="M2004.668,1072.728s-4.915-2.423-3.969,2.846,8.147,64.53,8.147,64.53l6.745.374s.862-19.757.673-22.595a51.742,51.742,0,0,0-1.307-7.227l-.572-17.528-6.364-21.641Z" transform="translate(-1988.345 -1002.694)"/><path class="d" d="M2007.963,1551.949a10.513,10.513,0,0,0,6.51-.252,5.092,5.092,0,0,1,.523,2.677c-.278.8-.639,1.15-.989,1.159-2.762.071-10.152-.005-12.258.022a.338.338,0,0,1-.267-.556C2002,1554.385,2007.737,1552.084,2007.963,1551.949Z" transform="translate(-1989.04 -1408.502)"/><path class="l" d="M1936.3,661.891s-4.155-8-4.8-10.931-2.877-17.717-2.689-18.669,3.719-3.243,3.283-4.051-3.8-.811-4.568-.742a6.965,6.965,0,0,0-2.979,1.064c-.663.546.745,18.26,1.165,22.074s5.583,15.558,5.583,15.558Z" transform="translate(-1923.941 -627.471)"/><g transform="translate(6.39 21.96)"><path class="l" d="M2210.329,1206.076a40.743,40.743,0,0,0,4.191-5.047c.409-.778.779-2.761,1.633-3.113a2.2,2.2,0,0,1,1.373-.191l8.994,7.063c.49.385-.078.432-.7.4a23.139,23.139,0,0,1-4.6-.853c-.185-.044-.914-.135-1.174-.171a7.863,7.863,0,0,0-2.166.073c-1.2.181-4.006,3.521-4.006,3.521Z" transform="translate(-2171.988 -1131.303)"/><path class="d" d="M2244.6,1203.117a10.517,10.517,0,0,0-5.214-3.906c.315-.9.66-2.079,1.247-2.442.717-.443,1.212-.351,1.489-.138,2.19,1.685,7.922,6.295,9.575,7.6a.338.338,0,0,1-.143.6C2250.759,1204.979,2244.857,1203.154,2244.6,1203.117Z" transform="translate(-2196.541 -1130.259)"/><path class="o" d="M2044.673,779.234a10.017,10.017,0,0,0-11.439-5.746,10.532,10.532,0,0,0-6.827-4.153c-5.215-.739-11.944,1.791-11.257,7.234-1.648,3.808-1.244,9.054,2.047,11.626-.6,5,4.414,9.444,10.353,8.846a10.763,10.763,0,0,0,10.429,4.48,23.492,23.492,0,0,1,2.593-.478c-.3-.034,6.774,4.6,11.656-3.653C2057.21,788.966,2052.3,779.549,2044.673,779.234Z" transform="translate(-2006.251 -769.209)"/><path class="k" d="M2014.207,1067.893s11.022-4.9,11.2-4.342c1.382,4.451,5.681,3.015,8.234,10.855,1.069,3.283,2.167,25.12,2.167,25.12s4.346-3.607,10.557-9.909c.477-.484,5.146,3.957,5.146,3.957-12.329,16.657-17.647,17.526-19.7,16.594-4.294-1.947-13.356-29.179-13.341-29.176C2017.374,1078.872,2014.207,1067.893,2014.207,1067.893Z" transform="translate(-2006.252 -1017.91)"/><path class="l" d="M2132.151,865.867s15.932-.02,19.343-.217c3.087-.178,15.332.134,15.811.078s3.644-5.416,4.17-4.84-1.761,2.658-1.054,3.2,8.307-.67,8.206-.108c-.189,1.052-4.623.917-4.618,1.425s4.641-.285,4.955.558-4.459.343-4.65.72,4.427,1.064,3.955,1.848c-.257.425-4.092-.711-4.073-.131s2.817,1.9,2.474,2.362-2.2-1.418-3.819-1.441-2.786-.87-5.378-.16c-1.28.351-11.048,1.545-19.3,2.251-8.462.723-15.4.953-15.4.953Z" transform="translate(-2105.922 -846.647)"/><path class="g" d="M1965.466,856.267a20.259,20.259,0,0,1,.407-5.377c-.774-2.657-2.42-8.326-3.012-9.44,0,0,2.774-5.331,5.614-5.294,0,0,2.9,6.537,5.142,7.706a5.559,5.559,0,0,0,1.128.336c2.165-.015,9.729-.245,11.142-.27l-.794,10.732c-5.482,10.745-4,16.384-1.912,18.469.981.981-13.679,4.963-14.354,3.573C1968.031,875.065,1965.894,861.438,1965.466,856.267Z" transform="translate(-1962.862 -825.783)"/><path class="g" d="M2086.662,886.672c1.4-.667,11.493-.333,11.493-.333s1.411,7.032.271,8.722c0,0-9.029,1.344-8.772,2.084Z" transform="translate(-2067.481 -868.121)"/><path class="l" d="M2033.295,848.594a52.394,52.394,0,0,0,0,5.432c.18,1.6-1.639,5.342-5.024,5.407s-.5-3.593-.2-5.165.652-7.725.652-7.725Z" transform="translate(-2016.76 -834.562)"/><path class="n" d="M2038.986,846.544s-.083,1.428-.2,3.084a3.938,3.938,0,0,0,4.7,1.149c.021-1.187.067-2.183.067-2.183Z" transform="translate(-2027.022 -834.562)"/><path class="l" d="M2036.482,785.3a5.625,5.625,0,0,1,2.993,2.491c1.076,1.918,1.529,7.376-2.6,9.624s-6.967-1.53-6.779-5.012S2031.344,784.332,2036.482,785.3Z" transform="translate(-2019.667 -782.697)"/><path class="l" d="M2024.053,814.152c.28.863.914,1.43,1.417,1.267s.683-.995.4-1.857-.915-1.43-1.417-1.267S2023.773,813.289,2024.053,814.152Z" transform="translate(-2014.461 -805.596)"/><path class="o" d="M2067.667,785.027s2.1,5.739,4.246,6.387,1.922,3.447,1.922,3.447.4-6.474-1.545-8.1A8.618,8.618,0,0,0,2067.667,785.027Z" transform="translate(-2051.429 -782.576)"/><path class="l" d="M2088.026,826.621c-.349.884-.148,1.793.45,2.029s1.365-.29,1.715-1.174.148-1.793-.45-2.029S2088.375,825.737,2088.026,826.621Z" transform="translate(-2068.489 -816.686)"/></g><path class="n" d="M1921.621,635.438s4.668.2,5.216.2,2.143-1.649,2.143-1.649Z" transform="translate(-1921.621 -632.983)"/></g><circle class="h" cx="18.121" cy="18.121" r="18.121" transform="matrix(0.976, -0.22, 0.22, 0.976, 0, 7.97)"/><path class="g" d="M1853.995,435.992a15.206,15.206,0,1,1-21.181-3.711A15.206,15.206,0,0,1,1853.995,435.992Z" transform="translate(-1819.886 -423.065)"/></g><path class="l" d="M1955.287,627.818l1.927-1.732s-.91-1.087-.532-1.3c.615-.34,1.667.974,1.573,1.293a7.556,7.556,0,0,1-1.224,1.348Z" transform="translate(-1928.854 -588.034)"/></g></g><g transform="translate(600.022 317.093)"><path class="q" d="M1891.088,491.834v.067a.6.6,0,0,0,.6.6h.049a.6.6,0,0,1,.6.6v.162a.6.6,0,0,1-.6.6h-.049a.6.6,0,0,0-.6.6V497.6a.6.6,0,0,1-.6.6h-1.677a.6.6,0,0,1-.488-.252l-2.717-3.833a.6.6,0,0,0-.488-.252h-2.016a.6.6,0,0,0-.6.6V497.6a.6.6,0,0,1-.6.6h-1.482a.6.6,0,0,1-.6-.6v-3.141a.6.6,0,0,0-.6-.6h-.049a.6.6,0,0,1-.6-.6V493.1a.6.6,0,0,1,.6-.6h.049a.6.6,0,0,0,.6-.6v-.067a.6.6,0,0,0-.6-.6h-.049a.6.6,0,0,1-.6-.6v-.162a.6.6,0,0,1,.6-.6h.049a.6.6,0,0,0,.6-.6v-3.066a.6.6,0,0,1,.6-.6h1.848a.6.6,0,0,1,.486.25l2.7,3.763a.6.6,0,0,0,.486.25h1.867a.6.6,0,0,0,.6-.6v-3.066a.6.6,0,0,1,.6-.6h1.482a.6.6,0,0,1,.6.6v3.066a.6.6,0,0,0,.6.6h.049a.6.6,0,0,1,.6.6v.162a.6.6,0,0,1-.6.6h-.049A.6.6,0,0,0,1891.088,491.834Zm-8.581-1.956h.094l-.094-.132Zm1.283,1.675-.048-.067a.6.6,0,0,0-.486-.25h-.15a.6.6,0,0,0-.6.6v.067a.6.6,0,0,0,.6.6h.2A.6.6,0,0,0,1883.791,491.553Zm4.021-.317h-.048a.6.6,0,0,0-.486.946l.049.067a.6.6,0,0,0,.486.25h0a.6.6,0,0,0,.6-.6v-.067A.6.6,0,0,0,1887.813,491.236Z" transform="translate(-1878.585 -485.616)"/></g><g transform="translate(570.364 402.596)"><path class="q" d="M1699.695,1045.854l-.014.066a.6.6,0,0,0,.456.712l.047.01a.6.6,0,0,1,.456.713l-.035.158a.6.6,0,0,1-.712.456l-.047-.01a.6.6,0,0,0-.712.456l-.673,3.068a.6.6,0,0,1-.712.456l-1.637-.359a.6.6,0,0,1-.423-.351l-1.832-4.326a.6.6,0,0,0-.423-.351l-1.969-.432a.6.6,0,0,0-.712.456l-.673,3.068a.6.6,0,0,1-.712.456l-1.447-.317a.6.6,0,0,1-.456-.712l.673-3.068a.6.6,0,0,0-.456-.712l-.047-.01a.6.6,0,0,1-.456-.712l.035-.158a.6.6,0,0,1,.713-.456l.047.01a.6.6,0,0,0,.712-.456l.015-.066a.6.6,0,0,0-.456-.712l-.047-.01a.6.6,0,0,1-.456-.713l.035-.158a.6.6,0,0,1,.712-.456l.047.01a.6.6,0,0,0,.713-.456l.657-2.995a.6.6,0,0,1,.712-.456l1.805.4a.6.6,0,0,1,.421.348l1.828,4.253a.6.6,0,0,0,.421.348l1.824.4a.6.6,0,0,0,.712-.456l.657-2.995a.6.6,0,0,1,.713-.456l1.447.318a.6.6,0,0,1,.456.712l-.657,2.995a.6.6,0,0,0,.456.712l.047.01a.6.6,0,0,1,.456.712l-.035.158a.6.6,0,0,1-.712.456l-.047-.01A.6.6,0,0,0,1699.695,1045.854Zm-7.962-3.749.092.02-.064-.149Zm.894,1.911-.033-.076a.6.6,0,0,0-.421-.348l-.147-.032a.6.6,0,0,0-.712.456l-.015.066a.6.6,0,0,0,.456.712l.194.043A.6.6,0,0,0,1692.627,1044.016Zm4,.552-.047-.01a.6.6,0,0,0-.678.82l.033.076a.6.6,0,0,0,.421.348h0a.6.6,0,0,0,.713-.456l.014-.066A.6.6,0,0,0,1696.623,1044.568Z" transform="translate(-1687.162 -1037.482)"/></g><g transform="translate(551.125 437.752)"><path class="q" d="M1575.6,1269.406l.036.057a.6.6,0,0,0,.825.184l.041-.026a.6.6,0,0,1,.825.184l.087.136a.6.6,0,0,1-.184.826l-.041.026a.6.6,0,0,0-.184.826l1.686,2.651a.6.6,0,0,1-.183.825l-1.415.9a.6.6,0,0,1-.547.049l-4.349-1.776a.6.6,0,0,0-.547.049l-1.7,1.082a.6.6,0,0,0-.183.826l1.686,2.651a.6.6,0,0,1-.184.826l-1.25.8a.6.6,0,0,1-.826-.184l-1.686-2.651a.6.6,0,0,0-.826-.184l-.041.026a.6.6,0,0,1-.826-.183l-.087-.136a.6.6,0,0,1,.184-.826l.041-.026a.6.6,0,0,0,.184-.826l-.036-.057a.6.6,0,0,0-.825-.184l-.041.026a.6.6,0,0,1-.826-.184l-.087-.136a.6.6,0,0,1,.184-.826l.041-.026a.6.6,0,0,0,.184-.826l-1.645-2.587a.6.6,0,0,1,.184-.826l1.56-.992a.6.6,0,0,1,.544-.05l4.3,1.728a.6.6,0,0,0,.544-.05l1.575-1a.6.6,0,0,0,.184-.826l-1.645-2.587a.6.6,0,0,1,.184-.825l1.25-.8a.6.6,0,0,1,.826.184l1.646,2.587a.6.6,0,0,0,.826.184l.041-.026a.6.6,0,0,1,.826.184l.087.136a.6.6,0,0,1-.184.826l-.041.026A.6.6,0,0,0,1575.6,1269.406Zm-8.29,2.955.079-.051-.15-.061Zm1.981.725-.077-.031a.6.6,0,0,0-.544.05l-.127.081a.6.6,0,0,0-.184.826l.036.057a.6.6,0,0,0,.826.184l.168-.107A.6.6,0,0,0,1569.293,1273.085Zm3.224-2.426-.041.026a.6.6,0,0,0,.1,1.06l.077.031a.6.6,0,0,0,.544-.05h0a.6.6,0,0,0,.184-.826l-.036-.057A.6.6,0,0,0,1572.517,1270.659Z" transform="translate(-1562.992 -1264.387)"/></g></g></svg>